<?xml version="1.0" encoding="utf-8" ?>
<svg baseProfile="full" height="200mm" version="1.1" viewBox="0,0,200,200" width="200mm" xmlns="http://www.w3.org/2000/svg" xmlns:ev="http://www.w3.org/2001/xml-events" xmlns:xlink="http://www.w3.org/1999/xlink"><defs /><rect fill="#1a1a1a" height="200" width="200" x="0" y="0" /><text alignment-baseline="middle" fill="#e1ed5e" style="dominant-baseline: central; font-size:9.0px; font-family:Arial;" text-anchor="middle" x="100.0" y="100.0">2019</text><line stroke="#e1ed5e" stroke-width="0.3" x1="100.0" x2="100.0" y1="15.0" y2="10.0" /><path d="M 100.0 14.0 a86.0,86.0 0 0,1 42.46469731375804,11.215312516191453" fill="none" id="id25" stroke="none" /><text fill="#e1ed5e" style="font-size:6.75px; font-family:Arial;" text-anchor="middle"><textPath startOffset="22.20632615414155" xlink:href="#id25">January</textPath></text><line stroke="#e1ed5e" stroke-width="0.3" x1="143.23703022742887" x2="145.7803849466894" y1="26.81831364943548" y2="22.513508569990506" /><path d="M 143.74570117128098 25.957352633546492 a86.0,86.0 0 0,1 28.547481713284135,27.462654790039103" fill="none" id="id26" stroke="none" /><text fill="#e1ed5e" style="font-size:6.75px; font-family:Arial;" text-anchor="middle"><textPath startOffset="19.985693538727396" xlink:href="#id26">February</textPath></text><line stroke="#e1ed5e" stroke-width="0.3" x1="172.23445277983987" x2="176.4835382374775" y1="55.19839476539836" y2="52.563006222186495" /><path d="M 173.08426987136738 54.67131705675599 a86.0,86.0 0 0,1 12.851231095245387,41.99856678651699" fill="none" id="id27" stroke="none" /><text fill="#e1ed5e" style="font-size:6.75px; font-family:Arial;" text-anchor="middle"><textPath startOffset="22.20632615414155" xlink:href="#id27">March</textPath></text><line stroke="#e1ed5e" stroke-width="0.3" x1="184.98032266829074" x2="189.97916517819016" y1="98.17113171792111" y2="98.06355123074" /><path d="M 185.9800911702706 98.14961562048488 a86.0,86.0 0 0,1 -9.607161424134198,41.387399972396054" fill="none" id="id28" stroke="none" /><text fill="#e1ed5e" style="font-size:6.75px; font-family:Arial;" text-anchor="middle"><textPath startOffset="21.466115282336823" xlink:href="#id28">April</textPath></text><line stroke="#e1ed5e" stroke-width="0.3" x1="174.80103733775053" x2="179.2010983576182" y1="140.37084112569926" y2="142.7455964860345" /><path d="M 175.68104954172406 140.8457921977663 a86.0,86.0 0 0,1 -30.038265399797805,32.042727171017184" fill="none" id="id29" stroke="none" /><text fill="#e1ed5e" style="font-size:6.75px; font-family:Arial;" text-anchor="middle"><textPath startOffset="22.206326154141568" xlink:href="#id29">May</textPath></text><line stroke="#e1ed5e" stroke-width="0.3" x1="143.8653032363475" x2="146.44561519142675" y1="172.8068346515853" y2="177.08958963109032" /><path d="M 144.38136562736335 173.6633856474863 a86.0,86.0 0 0,1 -40.68145358897372,12.25698825130547" fill="none" id="id30" stroke="none" /><text fill="#e1ed5e" style="font-size:6.75px; font-family:Arial;" text-anchor="middle"><textPath startOffset="21.466115282336833" xlink:href="#id30">June</textPath></text><path d="M 106.57524785965236 119.94407469862006 l 6.4307300971042185 19.50572269835188 a41.53843975492788,41.53843975492788 0 0,0 -0.6809903888498847,0.21803161754204647 l -6.094018363163393 -19.613527162553638" fill="#ffad10" stroke="none" /><path d="M 105.18746579009965 120.34920634021253 l 6.3182401313508825 24.784967716847472 a46.57762270193585,46.57762270193585 0 0,0 -0.778615307332601,0.19136469892604274 l -5.89067153927507 -24.890053674087543" fill="#fff717" stroke="none" /><path d="M 102.70371172650421 120.8252237178851 l 3.1790393059920317 24.486414030845523 a45.69191695674985,45.69191695674985 0 0,0 -0.7808369516186263,0.09454848061336844 l -2.757074931322025 -24.537508040184242" fill="#ffea16" stroke="none" /><path d="M 100.90346689309514 120.98055641714683 l 1.0622420773098287 24.667677368139227 a45.69053796435824,45.69053796435824 0 0,0 -0.786050547026633,0.02707317018622496 l -0.6374711786085434 -24.682307336751546" fill="#ffea16" stroke="none" /><line stroke="#e1ed5e" stroke-width="0.3" x1="102.19456741930631" x2="102.32365962044197" y1="184.97166512339345" y2="189.96999836594603" /><path d="M 102.22038585953345 185.97133177190398 a86.0,86.0 0 0,1 -42.740103519485714,-10.115201625700543" fill="none" id="id31" stroke="none" /><text fill="#e1ed5e" style="font-size:6.75px; font-family:Arial;" text-anchor="middle"><textPath startOffset="22.20632615414155" xlink:href="#id31">July</textPath></text><path d="M 100.54218724476979 120.99299961872073 l 0.6430611647784902 24.898746544177335 a45.907049346175654,45.907049346175654 0 0,0 -0.7901265786568725,0.013602745600157937 l -0.21437489622894973 -24.906126767056655" fill="#ffed16" stroke="none" /><path d="M 98.73552117531835 120.96189622390904 l -1.5066415675834695 24.97634880858015 a46.02174991124788,46.02174991124788 0 0,0 -0.7903408015292837,-0.054506528978582915 l 1.936345129891683 -24.946713935085278" fill="#ffef16" stroke="none" /><path d="M 97.2962882734958 120.8252237178851 l -3.1649287871343903 24.37772836398805 a45.58231914234334,45.58231914234334 0 0,0 -0.7772250110604932,-0.10771630444254957 l 3.584082389381715 -24.3196374940529" fill="#ffe915" stroke="none" /><path d="M 96.22490169976321 120.6578951692458 l -5.193170592938183 28.4177960871106 a49.88840866603691,49.88840866603691 0 0,0 -0.8434286063773907,-0.16164509978922442 l 5.68156681388727 -28.324193788972906" fill="#d9ff1c" stroke="none" /><path d="M 95.86986931433489 120.58985236759428 l -5.032199704016607 25.086917794047533 a46.5866464833984,46.5866464833984 0 0,0 -0.7848930147236659,-0.16448196260718587 l 5.46328418016966 -24.996579850713808" fill="#fff717" stroke="none" /><path d="M 95.16358092515715 120.4354850818985 l -3.9667186856542256 16.760710614683216 a38.223712649724305,38.223712649724305 0 0,0 -0.638967084314529,-0.15704256333258615 l 4.254639054711965 -16.6899467930366" fill="#ff7a0b" stroke="none" /><path d="M 94.81253420990036 120.34920634021253 l -13.021795474175185 51.081436243832414 a73.71508594419595,73.71508594419595 0 0,0 -1.226863192688997,-0.324025719975202 l 13.899149109675673 -50.849719174553634" fill="#3effb6" stroke="none" /><path d="M 93.08242187328487 119.8279376855182 l -10.372568351746505 29.73101787212781 a52.48846769730843,52.48846769730843 0 0,0 -0.8505142309482149,-0.3049641433711117 l 10.882802143324446 -29.548066187716742" fill="#b6ff1f" stroke="none" /><path d="M 92.40401165467489 119.57807347666478 l -5.4192597564555225 13.967723603251207 a35.982178712215365,35.982178712215365 0 0,0 -0.5755074032156408,-0.22900627285868758 l 5.658888235713021 -13.872370485986453" fill="#ff5608" stroke="none" /><path d="M 91.7346041902142 119.30500536409082 l -3.8559665210625105 9.006157247150098 a30.796904928187736,30.796904928187736 0 0,0 -0.4855342145835246,-0.21284393113813396 l 4.0104214103037785 -8.938448762717512" fill="#ff0000" stroke="none" /><path d="M 91.40352486487194 119.15986991738527 l -12.695359380169506 28.295485120935137 a52.01300740045569,52.01300740045569 0 0,0 -0.8137113127350358,-0.37353495365705686 l 13.18053868867196 -28.072763096944005" fill="#bcff1f" stroke="none" /><path d="M 90.42595943632237 118.69057910512821 l -12.781681015650703 24.952580734394612 a49.03573888614899,49.03573888614899 0 0,0 -0.7479330126937527,-0.3912832027441492 l 13.20930493087095 -24.728868112705744" fill="#e5ff1a" stroke="none" /><line stroke="#e1ed5e" stroke-width="0.3" x1="58.666819895761336" x2="56.23545636021788" y1="174.27360380694188" y2="178.64263932499728" /><path d="M 58.180547188652646 175.14741091055294 a86.0,86.0 0 0,1 -31.652253787137756,-30.449443065178592" fill="none" id="id32" stroke="none" /><text fill="#e1ed5e" style="font-size:6.75px; font-family:Arial;" text-anchor="middle"><textPath startOffset="22.20632615414155" xlink:href="#id32">August</textPath></text><path d="M 88.24862548938628 117.40417183066458 l -12.276508890312396 18.18191310426714 a42.93842826332462,42.93842826332462 0 0,0 -0.6089959639688116,-0.41887297713942917 l 12.587661738904101 -17.96789933776261" fill="#ffc212" stroke="none" /><path d="M 87.65650970185807 116.9893568818739 l -37.030470894425804 50.96807064562169 a84.0,84.0 0 0,0 -1.1624601183257428,-0.8599602050409239 l 37.902315983170105 -50.323100491841" fill="#4dd2ff" stroke="none" /><path d="M 86.24171649860922 115.8653595955263 l -19.36775356609513 22.33391795223397 a50.562032563646724,50.562032563646724 0 0,0 -0.6526297894744083,-0.5758699092466785 l 19.749325708476125 -21.997224901215002" fill="#d0ff1d" stroke="none" /><path d="M 85.70375840098266 115.38237550388516 l -31.149430231909214 33.51595796983699 a66.75594433959876,66.75594433959876 0 0,0 -0.8349711628292347,-0.789517350727287 l 31.72173722912926 -32.974805982363776" fill="#34ff5c" stroke="none" /><path d="M 84.9287848128048 114.62390073753433 l -23.905492782567237 23.195976514961217 a54.30954685461822,54.30954685461822 0 0,0 -0.6452321970383234,-0.6765233789903519 l 24.301231530984516 -22.781046019388363" fill="#9eff22" stroke="none" /><path d="M 82.05923443525364 110.91462005526583 l -20.804046562107413 12.656553758422174 a45.35152369766959,45.35152369766959 0 0,0 -0.399998547858726,-0.6704205740847123 l 21.01882598566437 -12.29657109045135" fill="#ffe515" stroke="none" /><line stroke="#e1ed5e" stroke-width="0.3" x1="26.63291911575756" x2="22.317208475507996" y1="142.92168965132927" y2="145.44649492493687" /><path d="M 25.769776987707644 143.4266507060508 a86.0,86.0 0 0,1 -11.730757126820373,-40.83630448921669" fill="none" id="id33" stroke="none" /><text fill="#e1ed5e" style="font-size:6.75px; font-family:Arial;" text-anchor="middle"><textPath startOffset="21.46611528233685" xlink:href="#id33">September</textPath></text><path d="M 81.51974371655577 109.97397251340807 l -22.38778117780289 12.082901377490215 a46.440307619274975,46.440307619274975 0 0,0 -0.37361778521624855,-0.7067440480905549 l 22.592451471244026 -11.695742314313533" fill="#fff517" stroke="none" /><path d="M 80.58989483394504 108.01547362559985 l -24.035926396943207 9.925723351488408 a47.00472537462285,47.00472537462285 0 0,0 -0.30239121503147504,-0.7505101967850651 l 24.20322022623207 -9.510513786860537" fill="#fffd17" stroke="none" /><line stroke="#e1ed5e" stroke-width="0.3" x1="15.007084014347285" x2="10.007500721073583" y1="101.09737516637583" y2="101.16192664675087" /><path d="M 14.007167355692545 101.11028546245083 a86.0,86.0 0 0,1 10.666146001902534,-42.60595125391555" fill="none" id="id34" stroke="none" /><text fill="#e1ed5e" style="font-size:6.75px; font-family:Arial;" text-anchor="middle"><textPath startOffset="22.20632615414155" xlink:href="#id34">October</textPath></text><line stroke="#e1ed5e" stroke-width="0.3" x1="26.266209847984243" x2="21.928928074336255" y1="57.711370442889674" y2="55.22380399835377" /><path d="M 25.398753493254645 57.213857153982495 a86.0,86.0 0 0,1 29.58750427330803,-30.492523968695096" fill="none" id="id35" stroke="none" /><text fill="#e1ed5e" style="font-size:6.75px; font-family:Arial;" text-anchor="middle"><textPath startOffset="21.46611528233685" xlink:href="#id35">November</textPath></text><line stroke="#e1ed5e" stroke-width="0.3" x1="56.76296977257108" x2="54.21961505331056" y1="26.818313649435495" y2="22.513508569990535" /><path d="M 56.25429882871898 25.957352633546506 a86.0,86.0 0 0,1 42.26535254187918,-11.944610805530505" fill="none" id="id36" stroke="none" /><text fill="#e1ed5e" style="font-size:6.75px; font-family:Arial;" text-anchor="middle"><textPath startOffset="22.20632615414155" xlink:href="#id36">December</textPath></text></svg>