<?xml version="1.0" encoding="utf-8" ?>
<svg baseProfile="full" height="200mm" version="1.1" viewBox="0,0,200,200" width="200mm" xmlns="http://www.w3.org/2000/svg" xmlns:ev="http://www.w3.org/2001/xml-events" xmlns:xlink="http://www.w3.org/1999/xlink"><defs /><rect fill="#1a1a1a" height="200" width="200" x="0" y="0" /><text alignment-baseline="middle" fill="#e1ed5e" style="dominant-baseline: central; font-size:9.0px; font-family:Arial;" text-anchor="middle" x="100.0" y="100.0">2017</text><line stroke="#e1ed5e" stroke-width="0.3" x1="100.0" x2="100.0" y1="15.0" y2="10.0" /><path d="M 100.0 14.0 a86.0,86.0 0 0,1 42.46469731375804,11.215312516191453" fill="none" id="id1" stroke="none" /><text fill="#e1ed5e" style="font-size:6.75px; font-family:Arial;" text-anchor="middle"><textPath startOffset="22.20632615414155" xlink:href="#id1">January</textPath></text><line stroke="#e1ed5e" stroke-width="0.3" x1="143.23703022742887" x2="145.7803849466894" y1="26.81831364943548" y2="22.513508569990506" /><path d="M 143.74570117128098 25.957352633546492 a86.0,86.0 0 0,1 28.547481713284135,27.462654790039103" fill="none" id="id2" stroke="none" /><text fill="#e1ed5e" style="font-size:6.75px; font-family:Arial;" text-anchor="middle"><textPath startOffset="19.985693538727396" xlink:href="#id2">February</textPath></text><line stroke="#e1ed5e" stroke-width="0.3" x1="172.23445277983987" x2="176.4835382374775" y1="55.19839476539836" y2="52.563006222186495" /><path d="M 173.08426987136738 54.67131705675599 a86.0,86.0 0 0,1 12.851231095245387,41.99856678651699" fill="none" id="id3" stroke="none" /><text fill="#e1ed5e" style="font-size:6.75px; font-family:Arial;" text-anchor="middle"><textPath startOffset="22.20632615414155" xlink:href="#id3">March</textPath></text><line stroke="#e1ed5e" stroke-width="0.3" x1="184.98032266829074" x2="189.97916517819016" y1="98.17113171792111" y2="98.06355123074" /><path d="M 185.9800911702706 98.14961562048488 a86.0,86.0 0 0,1 -9.607161424134198,41.387399972396054" fill="none" id="id4" stroke="none" /><text fill="#e1ed5e" style="font-size:6.75px; font-family:Arial;" text-anchor="middle"><textPath startOffset="21.466115282336823" xlink:href="#id4">April</textPath></text><path d="M 119.79798401119884 107.00284435728193 l 26.694300520232346 9.44217510550345 a49.31501988322569,49.31501988322569 0 0,0 -0.2899623106487252,0.7978517450482083 l -26.527813948578395 -9.90027464755779" fill="#ff0000" stroke="none" /><path d="M 119.54520255179757 107.68017299344265 l 34.34399764952292 13.495272946683535 a57.90030577726863,57.90030577726863 0 0,0 -0.3724847592479328,0.9244766252005985 l -34.1066102760176 -14.084448939726947" fill="#ffd113" stroke="none" /><line stroke="#e1ed5e" stroke-width="0.3" x1="174.80103733775053" x2="179.2010983576182" y1="140.37084112569926" y2="142.7455964860345" /><path d="M 175.68104954172406 140.8457921977663 a86.0,86.0 0 0,1 -30.038265399797805,32.042727171017184" fill="none" id="id5" stroke="none" /><text fill="#e1ed5e" style="font-size:6.75px; font-family:Arial;" text-anchor="middle"><textPath startOffset="22.206326154141568" xlink:href="#id5">May</textPath></text><path d="M 115.56566222782051 114.09645910891815 l 39.36344934022811 35.64803385099481 a74.10615276408541,74.10615276408541 0 0,0 -0.8644080147228799,0.9381441773253667 l -38.743994917509504 -36.32032928312151" fill="#37ff78" stroke="none" /><path d="M 113.48314897796784 116.09983520530334 l 24.306568402497692 29.02376487318373 a58.85747211475105,58.85747211475105 0 0,0 -0.7823275535988041,0.6438023160231346 l -23.803370720354195 -29.437862308064044" fill="#ffe615" stroke="none" /><line stroke="#e1ed5e" stroke-width="0.3" x1="143.8653032363475" x2="146.44561519142675" y1="172.8068346515853" y2="177.08958963109032" /><path d="M 144.38136562736335 173.6633856474863 a86.0,86.0 0 0,1 -40.68145358897372,12.25698825130547" fill="none" id="id6" stroke="none" /><text fill="#e1ed5e" style="font-size:6.75px; font-family:Arial;" text-anchor="middle"><textPath startOffset="21.466115282336833" xlink:href="#id6">June</textPath></text><line stroke="#e1ed5e" stroke-width="0.3" x1="102.19456741930631" x2="102.32365962044197" y1="184.97166512339345" y2="189.96999836594603" /><path d="M 102.22038585953345 185.97133177190398 a86.0,86.0 0 0,1 -42.740103519485714,-10.115201625700543" fill="none" id="id7" stroke="none" /><text fill="#e1ed5e" style="font-size:6.75px; font-family:Arial;" text-anchor="middle"><textPath startOffset="22.20632615414155" xlink:href="#id7">July</textPath></text><path d="M 100.18074693466247 120.99922214144158 l 0.29974798526667396 34.8247926905046 a55.82608267938406,55.82608267938406 0 0,0 -0.9609898398582348,0.0 l 0.29974798526665 -34.8247926905046" fill="#ffa10e" stroke="none" /><path d="M 98.01472825383883 120.90594882070398 l -5.229257807085691 55.06681707257053 a76.31455034362037,76.31455034362037 0 0,0 -1.3066773670603478,-0.1354424517772082 l 6.176367770751632 -54.968645252337566" fill="#3cffa4" stroke="none" /><path d="M 97.65516085044442 120.86867818915974 l -5.832199815553165 51.90560772952103 a73.23223782741317,73.23223782741317 0 0,0 -1.251478185944633,-0.15153657976427456 l 6.724805424549187 -51.797525621031404" fill="#35ff66" stroke="none" /><path d="M 96.93821686468263 120.77559828337769 l -7.7651971364208645 52.69041247129109 a74.25953297732028,74.25953297732028 0 0,0 -1.2629924745085448,-0.1972534497661116 l 8.671025474537926 -52.54894071417787" fill="#37ff7b" stroke="none" /><path d="M 96.58105272829116 120.7198165907248 l -8.877058774596945 53.79756254117403 a75.52503927425619,75.52503927425619 0 0,0 -1.2808724008161982,-0.22269608519613232 l 9.801780146885193 -53.6367878774569" fill="#3aff94" stroke="none" /><path d="M 94.46302465271185 120.25689768951611 l -16.487915409247652 60.32066148210437 a83.53345949314763,83.53345949314763 0 0,0 -1.3837469989553246,-0.3910607237799567 l 17.52379357630759 -60.02791196498589" fill="#4cdaff" stroke="none" /><path d="M 94.11515582081647 120.15858648285463 l -14.45755843375011 49.52449600086283 a72.59163401177344,72.59163401177344 0 0,0 -1.1964657703690191,-0.3604853218538119 l 15.307899178559376 -49.268295309903294" fill="#34ff59" stroke="none" /><path d="M 93.76903079525671 120.05430185196036 l -15.460853697543312 49.76057764873916 a73.10713084591242,73.10713084591242 0 0,0 -1.1985345081853025,-0.38373290104863256 l 16.315109550819557 -49.48707190103082" fill="#35ff64" stroke="none" /><path d="M 93.08242187328487 119.8279376855182 l -19.918806537326734 57.09351561448166 a81.46840810780876,81.46840810780876 0 0,0 -1.320100271701043,-0.4733409905139993 l 20.898626369657503 -56.74218708292771" fill="#47fcff" stroke="none" /><path d="M 92.7421414339146 119.70592522655815 l -18.71734364354229 50.81975226177173 a75.15705100001574,75.15705100001574 0 0,0 -1.2101350982354038,-0.4575695470084297 l 19.589348962537976 -50.49003446465667" fill="#39ff8d" stroke="none" /><path d="M 91.7346041902142 119.30500536409082 l -24.796187429357385 57.91501609227247 a84.0,84.0 0 0,0 -1.3243173013690268,-0.5805417868221912 l 25.789425405384158 -57.479609752155824" fill="#4dd2ff" stroke="none" /><line stroke="#e1ed5e" stroke-width="0.3" x1="58.666819895761336" x2="56.23545636021788" y1="174.27360380694188" y2="178.64263932499728" /><path d="M 58.180547188652646 175.14741091055294 a86.0,86.0 0 0,1 -31.652253787137756,-30.449443065178592" fill="none" id="id8" stroke="none" /><text fill="#e1ed5e" style="font-size:6.75px; font-family:Arial;" text-anchor="middle"><textPath startOffset="22.20632615414155" xlink:href="#id8">August</textPath></text><line stroke="#e1ed5e" stroke-width="0.3" x1="26.63291911575756" x2="22.317208475507996" y1="142.92168965132927" y2="145.44649492493687" /><path d="M 25.769776987707644 143.4266507060508 a86.0,86.0 0 0,1 -11.730757126820373,-40.83630448921669" fill="none" id="id9" stroke="none" /><text fill="#e1ed5e" style="font-size:6.75px; font-family:Arial;" text-anchor="middle"><textPath startOffset="21.46611528233685" xlink:href="#id9">September</textPath></text><line stroke="#e1ed5e" stroke-width="0.3" x1="15.007084014347285" x2="10.007500721073583" y1="101.09737516637583" y2="101.16192664675087" /><path d="M 14.007167355692545 101.11028546245083 a86.0,86.0 0 0,1 10.666146001902534,-42.60595125391555" fill="none" id="id10" stroke="none" /><text fill="#e1ed5e" style="font-size:6.75px; font-family:Arial;" text-anchor="middle"><textPath startOffset="22.20632615414155" xlink:href="#id10">October</textPath></text><line stroke="#e1ed5e" stroke-width="0.3" x1="26.266209847984243" x2="21.928928074336255" y1="57.711370442889674" y2="55.22380399835377" /><path d="M 25.398753493254645 57.213857153982495 a86.0,86.0 0 0,1 29.58750427330803,-30.492523968695096" fill="none" id="id11" stroke="none" /><text fill="#e1ed5e" style="font-size:6.75px; font-family:Arial;" text-anchor="middle"><textPath startOffset="21.46611528233685" xlink:href="#id11">November</textPath></text><line stroke="#e1ed5e" stroke-width="0.3" x1="56.762969772571076" x2="54.21961505331055" y1="26.818313649435495" y2="22.513508569990535" /><path d="M 56.25429882871897 25.957352633546506 a86.0,86.0 0 0,1 42.265352541879196,-11.944610805530505" fill="none" id="id12" stroke="none" /><text fill="#e1ed5e" style="font-size:6.75px; font-family:Arial;" text-anchor="middle"><textPath startOffset="22.20632615414155" xlink:href="#id12">December</textPath></text></svg>