<?xml version="1.0" encoding="utf-8" ?>
<svg baseProfile="full" height="200mm" version="1.1" viewBox="0,0,200,200" width="200mm" xmlns="http://www.w3.org/2000/svg" xmlns:ev="http://www.w3.org/2001/xml-events" xmlns:xlink="http://www.w3.org/1999/xlink"><defs /><rect fill="#1a1a1a" height="200" width="200" x="0" y="0" /><text alignment-baseline="middle" fill="#e1ed5e" style="dominant-baseline: central; font-size:9.0px; font-family:Arial;" text-anchor="middle" x="100.0" y="100.0">2023</text><line stroke="#e1ed5e" stroke-width="0.3" x1="100.0" x2="100.0" y1="15.0" y2="10.0" /><path d="M 100.0 14.0 a86.0,86.0 0 0,1 42.46469731375804,11.215312516191453" fill="none" id="id73" stroke="none" /><text fill="#e1ed5e" style="font-size:6.75px; font-family:Arial;" text-anchor="middle"><textPath startOffset="22.20632615414155" xlink:href="#id73">January</textPath></text><line stroke="#e1ed5e" stroke-width="0.3" x1="143.23703022742887" x2="145.7803849466894" y1="26.81831364943548" y2="22.513508569990506" /><path d="M 143.74570117128098 25.957352633546492 a86.0,86.0 0 0,1 28.547481713284135,27.462654790039103" fill="none" id="id74" stroke="none" /><text fill="#e1ed5e" style="font-size:6.75px; font-family:Arial;" text-anchor="middle"><textPath startOffset="19.985693538727396" xlink:href="#id74">February</textPath></text><path d="M 115.19652480421416 85.50635884689758 l 2.855818435947394 -2.7237284933432604 a24.946440908533532,24.946440908533532 0 0,0 0.2936940663391592,0.31329235274403316 l -2.902279824257016 2.674166723721173" fill="#ff1a02" stroke="none" /><path d="M 115.4437574822437 85.77008943001954 l 8.738216067972434 -8.051410631860634 a32.881987763560865,32.881987763560865 0 0,0 0.37995349714351156,0.4195541414420442 l -8.875513205731982 7.899803703149042" fill="#ff8a0c" stroke="none" /><path d="M 115.9244219780498 86.31012108654704 l 5.7403001253395365 -4.93481105631948 a28.56990129992103,28.56990129992103 0 0,0 0.31738355938058044,0.37568202637871173 l -5.824394298207234 4.835270080311661" fill="#ff4e07" stroke="none" /><path d="M 116.60985879189232 87.15038557335679 l 5.706636493321781 -4.414732210004663 a28.214953953627465,28.214953953627465 0 0,0 0.2938709178631952,0.3866996807461717 l -5.78178335140909 4.315847753377458" fill="#ff4906" stroke="none" /><path d="M 117.04232023915458 87.72973835380427 l 18.290090830840548 -13.168641175483046 a43.537536090021575,43.537536090021575 0 0,0 0.432654016515262,0.6119584235534536 l -18.51405746715969 12.8518562515978" fill="#ebff1a" stroke="none" /><path d="M 117.45458315368197 88.32363383020206 l 10.591401647533514 -7.085192628155948 a33.74275258480094,33.74275258480094 0 0,0 0.31879407833855156,0.48554525251416636 l -10.71179236122999 6.901829311664108" fill="#ff950d" stroke="none" /><line stroke="#e1ed5e" stroke-width="0.3" x1="172.23445277983987" x2="176.4835382374775" y1="55.19839476539836" y2="52.563006222186495" /><path d="M 173.08426987136738 54.67131705675599 a86.0,86.0 0 0,1 12.851231095245387,41.99856678651699" fill="none" id="id75" stroke="none" /><text fill="#e1ed5e" style="font-size:6.75px; font-family:Arial;" text-anchor="middle"><textPath startOffset="22.20632615414155" xlink:href="#id75">March</textPath></text><path d="M 117.84615892207809 88.93136811851018 l 7.315953697847912 -4.537536547616564 a29.608856859653933,29.608856859653933 0 0,0 0.2649064968920734,0.4354366284171288 l -7.39297599302621 4.410932145992353" fill="#ff5c08" stroke="none" /><path d="M 118.73160827565052 90.50648371742162 l 8.64341875507264 -4.380640224848811 a30.690133980245314,30.690133980245314 0 0,0 0.23476489166879888,0.47327169605642877 l -8.717543659694845 4.231208940293433" fill="#ff6c09" stroke="none" /><path d="M 119.34039704204932 91.81776055985345 l 19.053511044353584 -8.060868099110047 a41.688496263106074,41.688496263106074 0 0,0 0.27390992336354475,0.6632946057650564 l -19.189442654603326 7.731698922891687" fill="#fffc17" stroke="none" /><path d="M 119.7369772167798 92.82701384747503 l 10.84622662318407 -3.9418312399481223 a32.54030612616918,32.54030612616918 0 0,0 0.18679207871501785,0.528086360219192 l -10.912471782708897 3.7545472533023156" fill="#ff850c" stroke="none" /><path d="M 119.97218684219823 93.5106431181261 l 12.962470571344493 -4.211762000469241 a34.629548138568964,34.629548138568964 0 0,0 0.17932254569782372,0.5685014741666646 l -13.033048600810524 3.9880103598761574" fill="#ffa10e" stroke="none" /><path d="M 120.83666639777658 97.38593545837742 l 15.010963344618405 -1.8832008088851662 a36.1286306657299,36.1286306657299 0 0,0 0.0721018170316406,0.6177243364894793 l -15.041155514653635 1.6245327340708342" fill="#ffb510" stroke="none" /><path d="M 120.87857604477298 97.74499172005257 l 15.697069033917533 -1.6953752289659705 a36.78835879445879,36.78835879445879 0 0,0 0.06258028178912041,0.6301748973138819 l -15.723926441388882 1.4249248009476536" fill="#ffbe11" stroke="none" /><path d="M 120.94382443527127 98.46500227214037 l 9.021052260873773 -0.6611636172820553 a30.045248543972317,30.045248543972317 0 0,0 0.033363687579565704,0.516121479738224 l -9.031096539457755 0.5057830732907961" fill="#ff6309" stroke="none" /><path d="M 120.98425023603335 99.18683210126433 l 13.228545716891814 -0.5126239252266485 a34.23847442391349,34.23847442391349 0 0,0 0.017752331947626283,0.5891134721897905 l -13.235409743295087 0.28484030561185886" fill="#ff9c0e" stroke="none" /><line stroke="#e1ed5e" stroke-width="0.3" x1="184.98032266829074" x2="189.97916517819016" y1="98.17113171792111" y2="98.06355123074" /><path d="M 185.9800911702706 98.14961562048488 a86.0,86.0 0 0,1 -9.607161424134198,41.387399972396054" fill="none" id="id76" stroke="none" /><text fill="#e1ed5e" style="font-size:6.75px; font-family:Arial;" text-anchor="middle"><textPath startOffset="21.466115282336823" xlink:href="#id76">April</textPath></text><path d="M 120.9904718944345 100.63252640178507 l 15.041103866323162 0.4532482811862582 a36.047931403416214,36.047931403416214 0 0,0 -0.024028293084474312,0.6200634771901079 l -15.031073440387484 -0.7120890053903722" fill="#ffb410" stroke="none" /><path d="M 120.95626037817324 101.35467743843564 l 9.110960823706428 0.5889606660547703 a30.129977097302763,30.129977097302763 0 0,0 -0.03791131820359185,0.5172698162054624 l -9.099472946838498 -0.745703618757003" fill="#ff6409" stroke="none" /><path d="M 120.70491114924044 103.5080841355445 l 14.398260020898066 2.439532688388769 a35.60346573136353,35.60346573136353 0 0,0 -0.10757936027189496,0.6033621839383192 l -14.354134218286982 -2.6870136230603063" fill="#ffae10" stroke="none" /><path d="M 120.49622156327973 104.57218783832717 l 4.2939274768038596 0.9578664500424104 a25.399468298802482,25.399468298802482 0 0,0 -0.09886372211471328,0.4259023273661848 l -4.276803188758593 -1.0316374347571602" fill="#ff2003" stroke="none" /><path d="M 120.41448212921028 104.9243191809786 l 29.634271308957807 7.148288636341219 a51.48422651866642,51.48422651866642 0 0,0 -0.21522536098138567,0.8597183309645066 l -29.506834633681358 -7.657334806703122" fill="#8fff24" stroke="none" /><path d="M 120.13307415673323 105.97154293290107 l 2.1311363019200105 0.6321027689913555 a23.222902572747586,23.222902572747586 0 0,0 -0.11696958842357842,0.38226338278334665 l -2.119939940990299 -0.6686931243267593" fill="#ff0000" stroke="none" /><path d="M 120.02730092923936 106.31721596034902 l 16.108356696247046 5.081062514417997 a37.89071791632762,37.89071791632762 0 0,0 -0.20155651456244375,0.6203271666792618 l -16.018507930668353 -5.3575885810750545" fill="#ffcc13" stroke="none" /><path d="M 119.79798401119884 107.00284435728193 l 12.960518832849283 4.584330208809419 a34.747404550679505,34.747404550679505 0 0,0 -0.20430768833549998,0.5621670116386926 l -12.879686883508557 -4.806745017454243" fill="#ffa30f" stroke="none" /><path d="M 119.54520255179757 107.68017299344265 l 16.01734402947039 6.29392162684467 a38.20955429996006,38.20955429996006 0 0,0 -0.24581004268165776,0.6100803672009977 l -15.90663137253134 -6.568701361888481" fill="#ffd013" stroke="none" /><path d="M 119.26925614724726 108.34839909993367 l 19.816886372153515 8.585659720777974 a42.596817782438066,42.596817782438066 0 0,0 -0.29728301943303564,0.6702947283964058 l -19.666162267989208 -8.925502785667067" fill="#f6ff19" stroke="none" /><line stroke="#e1ed5e" stroke-width="0.3" x1="174.80103733775053" x2="179.2010983576182" y1="140.37084112569926" y2="142.7455964860345" /><path d="M 175.68104954172406 140.8457921977663 a86.0,86.0 0 0,1 -30.038265399797805,32.042727171017184" fill="none" id="id77" stroke="none" /><text fill="#e1ed5e" style="font-size:6.75px; font-family:Arial;" text-anchor="middle"><textPath startOffset="22.206326154141568" xlink:href="#id77">May</textPath></text><path d="M 116.93607887273984 112.41649034213515 l 7.52711430986406 5.518416797350137 a30.333293833531464,30.333293833531464 0 0,0 -0.31234443026325803,0.41843640693493245 l -7.43100861290571 -5.647166083794384" fill="#ff6709" stroke="none" /><path d="M 116.498646956653 112.99209946851258 l 11.450620127919429 9.01695733407348 a35.57471169109067,35.57471169109067 0 0,0 -0.38299071891277986,0.4778398093588139 l -11.293711496951794 -9.212724977010543" fill="#ffae10" stroke="none" /><path d="M 116.0416608686014 113.55231037782055 l 11.959048572519308 10.103239272152988 a36.65548742614712,36.65548742614712 0 0,0 -0.4113400084431288,0.47848135928112306 l -11.7833660545054 -10.30759773059564" fill="#ffbc11" stroke="none" /><path d="M 115.80600337817218 113.82643327865902 l 22.99464867315574 20.114760704445665 a51.550899590666305,51.550899590666305 0 0,0 -0.5899905956801784,0.6628606886940426 l -22.644999227827224 -20.507595562880574" fill="#8eff24" stroke="none" /><path d="M 115.32070863581623 114.36230785411682 l 9.940798424761862 9.318942790830182 a34.625790548093484,34.625790548093484 0 0,0 -0.4113765664320714,0.43132668524218787 l -9.778915306950825 -9.488676592654876" fill="#ffa10e" stroke="none" /><path d="M 115.07121518719521 114.62390073753431 l 7.369561665171342 7.150832692122184 a31.26863415101962,31.26863415101962 0 0,0 -0.3781410849695274,0.38305492264717267 l -7.245379955146279 -7.276628108750021" fill="#ff740a" stroke="none" /><path d="M 114.29624159901734 115.38237550388516 l 9.771557293998647 10.513935604190317 a35.353611874331804,35.353611874331804 0 0,0 -0.44932833034441844,0.41045077629774124 l -9.589129414187363 -10.680579147074642" fill="#ffab0f" stroke="none" /><path d="M 113.48314897796784 116.09983520530334 l 8.530201990060378 10.185665569099244 a34.28578673157009,34.28578673157009 0 0,0 -0.45572320205368066,0.3750291698125447 l -8.353608659462006 -10.330989857768968" fill="#ff9d0e" stroke="none" /><path d="M 113.20401910651253 116.32954008644616 l 9.065018375053237 11.210797238758328 a35.41723041601972,35.41723041601972 0 0,0 -0.4773610332360722,0.3792444752585218 l -8.870699849099813 -11.365175628021975" fill="#ffac0f" stroke="none" /><path d="M 111.7513745106137 117.40417183066458 l 5.4570837953025215 8.082120434677583 a30.751945153126442,30.751945153126442 0 0,0 -0.4412542446475202,0.29243925249383756 l -5.317154851915037 -8.174857708262738" fill="#ff6c0a" stroke="none" /><path d="M 111.45004920935366 117.60387380957326 l 5.6294640269176695 8.655017330793182 a31.324736811497445,31.324736811497445 0 0,0 -0.45453415964541344,0.2901052062251401 l -5.479648065225326 -8.750636965842132" fill="#ff740a" stroke="none" /><line stroke="#e1ed5e" stroke-width="0.3" x1="143.8653032363475" x2="146.44561519142675" y1="172.8068346515853" y2="177.08958963109032" /><path d="M 144.38136562736335 173.6633856474863 a86.0,86.0 0 0,1 -40.68145358897372,12.25698825130547" fill="none" id="id78" stroke="none" /><text fill="#e1ed5e" style="font-size:6.75px; font-family:Arial;" text-anchor="middle"><textPath startOffset="21.466115282336833" xlink:href="#id78">June</textPath></text><path d="M 110.8373102113329 117.98757091392108 l 9.031643706219366 14.990558401198404 a38.50106937349349,38.50106937349349 0 0,0 -0.5706080851807779,0.3371253145054942 l -8.772267750010206 -15.143802287997648" fill="#ffd413" stroke="none" /><path d="M 110.21172684928248 118.3499491758327 l 12.678162047397587 22.782006671972727 a47.07212344443548,47.07212344443548 0 0,0 -0.7114103894365139,0.3879176668370301 l -12.284128846092424 -22.996864990569527" fill="#c1ff1e" stroke="none" /><path d="M 109.2508944713604 118.85261126421891 l 6.7002854993487615 13.654666396808365 a36.209988171622975,36.209988171622975 0 0,0 -0.5619226874758735,0.2697570379739014 l -6.464250143872655 -13.767977711281825" fill="#ffb610" stroke="none" /><path d="M 108.2653958097858 119.30500536409082 l 6.492767753502603 15.164780876042755 a37.49626054957048,37.49626054957048 0 0,0 -0.5955272883524366,0.24893045483001167 l -6.230769005652705 -15.27429637389274" fill="#ffc712" stroke="none" /><path d="M 107.93186726928326 119.44442032107085 l 5.422535211089533 13.292967503194122 a35.356422714467584,35.356422714467584 0 0,0 -0.5654989150640138,0.2250236888715017 l -5.192915219983653 -13.384338036471693" fill="#ffab0f" stroke="none" /><path d="M 107.2578585660854 119.70592522655815 l 5.438559853509614 14.766318858046533 a36.736013024197305,36.736013024197305 0 0,0 -0.595264126313602,0.21344053721287448 l -5.183576166566277 -14.85774693629937" fill="#ffbd11" stroke="none" /><path d="M 106.91757812671514 119.82793768551818 l 4.376677822960758 12.544924474089553 a34.28647578655106,34.28647578655106 0 0,0 -0.5589189720310155,0.18961566131618415 l -4.1600891179925155 -12.61840312230386" fill="#ff9d0e" stroke="none" /><path d="M 105.53697534728816 120.25689768951611 l 3.8929054471575153 14.242105556177366 a35.76456174404804,35.76456174404804 0 0,0 -0.5952407684858614,0.15720849701627304 l -3.647174235860157 -14.307005402497222" fill="#ffb010" stroke="none" /><path d="M 103.41894727170886 120.7198165907248 l 2.732294536732692 16.55850095770696 a37.78241303870935,37.78241303870935 0 0,0 -0.6425963297027109,0.1003603310385709 l -2.4468623434214645 -16.603079596092638" fill="#ffcb12" stroke="none" /><path d="M 101.98527174616119 120.90594882070398 l 1.3238599890432907 13.940937420901378 a35.00365457457724,35.00365457457724 0 0,0 -0.600322147373632,0.0517983208992558 l -1.0836935239281171 -13.961659994079298" fill="#ffa60f" stroke="none" /><path d="M 101.62511606390274 120.93702456842531 l 1.1146798107504667 14.360868803157098 a35.40406414391388,35.40406414391388 0 0,0 -0.6080011404793697,0.041931318386227025 l -0.8673159094921667 -14.37792846605961" fill="#ffac0f" stroke="none" /><line stroke="#e1ed5e" stroke-width="0.3" x1="102.19456741930631" x2="102.32365962044197" y1="184.97166512339345" y2="189.96999836594603" /><path d="M 102.22038585953345 185.97133177190398 a86.0,86.0 0 0,1 -42.740103519485714,-10.115201625700543" fill="none" id="id79" stroke="none" /><text fill="#e1ed5e" style="font-size:6.75px; font-family:Arial;" text-anchor="middle"><textPath startOffset="22.20632615414155" xlink:href="#id79">July</textPath></text><path d="M 100.54218724476979 120.99299961872073 l 0.7115300443753135 27.54979962064843 a48.55898644983028,48.55898644983028 0 0,0 -0.8357702438535425,0.014388542689764148 l -0.23720011062910318 -27.55796564061735" fill="#b0ff20" stroke="none" /><path d="M 99.45781275523022 120.99299961872073 l -0.3731653339299821 14.448624139504183 a35.453442215995125,35.453442215995125 0 0,0 -0.6099336731294325,-0.021007348951545886 l 0.6218193587340576 -14.440059992126544" fill="#ffac0f" stroke="none" /><path d="M 98.37488393609728 120.93702456842531 l -0.7771614802199811 10.012484256615878 a31.042600308451917,31.042600308451917 0 0,0 -0.5323889949127204,-0.04593676265713034 l 0.9493947928742431 -9.997623241680085" fill="#ff700a" stroke="none" /><path d="M 98.01472825383883 120.90594882070398 l -2.8602020359046882 30.119421935621602 a51.25492246597563,51.25492246597563 0 0,0 -0.8775999705844046,-0.09096682524085377 l 3.378234603094686 -30.065725741924986" fill="#91ff24" stroke="none" /><path d="M 96.93821686468263 120.77559828337769 l -2.2609788896824066 15.341775384875554 a36.507485208748804,36.507485208748804 0 0,0 -0.6209125917336953,-0.09697377711640515 l 2.524727345024619 -15.300583300412043" fill="#ffba11" stroke="none" /><path d="M 95.16358092515715 120.4354850818985 l -3.6548495236251437 15.442959297122595 a36.869559442307406,36.869559442307406 0 0,0 -0.6163303683422362,-0.15147900929515992 l 3.9201331767105905 -15.377759029513406" fill="#ffbf11" stroke="none" /><path d="M 94.46302465271185 120.25689768951611 l -3.7849945307382185 13.847315936144446 a35.3552896952001,35.3552896952001 0 0,0 -0.5856668251234399,-0.16551529484767918 l 4.022792523966272 -13.780111847958246" fill="#ffab0f" stroke="none" /><path d="M 93.08242187328487 119.8279376855182 l -4.985488113649305 14.289964759136126 a36.13466829992289,36.13466829992289 0 0,0 -0.5855200383617548,-0.20994665395138476 l 5.230727712640786 -14.202030564144785" fill="#ffb510" stroke="none" /><path d="M 92.7421414339146 119.70592522655815 l -3.5372689323859836 9.604094162642461 a31.234788526634347,31.234788526634347 0 0,0 -0.5029243880528628,-0.19016297003235508 l 3.7020635411991294 -9.541782942503472" fill="#ff730a" stroke="none" /><line stroke="#e1ed5e" stroke-width="0.3" x1="58.666819895761336" x2="56.23545636021788" y1="174.27360380694188" y2="178.64263932499728" /><path d="M 58.180547188652646 175.14741091055294 a86.0,86.0 0 0,1 -31.652253787137756,-30.449443065178592" fill="none" id="id80" stroke="none" /><text fill="#e1ed5e" style="font-size:6.75px; font-family:Arial;" text-anchor="middle"><textPath startOffset="22.20632615414155" xlink:href="#id80">August</textPath></text><line stroke="#e1ed5e" stroke-width="0.3" x1="26.63291911575756" x2="22.317208475507996" y1="142.92168965132927" y2="145.44649492493687" /><path d="M 25.769776987707644 143.4266507060508 a86.0,86.0 0 0,1 -11.730757126820373,-40.83630448921669" fill="none" id="id81" stroke="none" /><text fill="#e1ed5e" style="font-size:6.75px; font-family:Arial;" text-anchor="middle"><textPath startOffset="21.46611528233685" xlink:href="#id81">September</textPath></text><line stroke="#e1ed5e" stroke-width="0.3" x1="15.007084014347285" x2="10.007500721073583" y1="101.09737516637583" y2="101.16192664675087" /><path d="M 14.007167355692545 101.11028546245083 a86.0,86.0 0 0,1 10.666146001902534,-42.60595125391555" fill="none" id="id82" stroke="none" /><text fill="#e1ed5e" style="font-size:6.75px; font-family:Arial;" text-anchor="middle"><textPath startOffset="22.20632615414155" xlink:href="#id82">October</textPath></text><path d="M 79.26566170972629 96.67025291283419 l -8.50089862145812 -1.365167386912465 a29.609817615176176,29.609817615176176 0 0,0 0.08514675078600946,-0.5025409430202442 l 8.476140009151887 1.511294118248537" fill="#ff5c08" stroke="none" /><path d="M 79.46518482838121 95.60439243477599 l -16.85891904986226 -3.608758661704178 a38.24083207412663,38.24083207412663 0 0,0 0.14332229190220375,-0.6424857319202851 l 16.794302370958018 3.8984225631744223" fill="#ffd113" stroke="none" /><path d="M 79.62865764111835 94.90015583598534 l -11.23835168784095 -2.8134543742225104 a32.58516612636303,32.58516612636303 0 0,0 0.14089774337567482,-0.5429364810332622 l 11.188257612594969 3.0064872808046363" fill="#ff860c" stroke="none" /><path d="M 80.02781315780177 93.51064311812611 l -14.684280155456305 -4.771211847509754 a36.439965873593934,36.439965873593934 0 0,0 0.19896690961574004,-0.5948857347647943 l 14.599975952068792 5.02327068519687" fill="#ffb911" stroke="none" /><path d="M 80.2630227832202 92.82701384747504 l -40.57458415944218 -14.745972857115257 a64.17106201165818,64.17106201165818 0 0,0 0.3862346566310052,-1.0349168559811424 l 40.31474491430955 15.442212850125742" fill="#34ff5b" stroke="none" /><path d="M 80.803312248108 91.48605970444005 l -7.972403872792621 -3.535848030781112 a29.721321276486577,29.721321276486577 0 0,0 0.21144269216642544,-0.46588594439777464 l 7.910358863662844 3.6725559840209576" fill="#ff5e08" stroke="none" /><line stroke="#e1ed5e" stroke-width="0.3" x1="26.266209847984243" x2="21.928928074336255" y1="57.711370442889674" y2="55.22380399835377" /><path d="M 25.398753493254645 57.213857153982495 a86.0,86.0 0 0,1 29.58750427330803,-30.492523968695096" fill="none" id="id83" stroke="none" /><text fill="#e1ed5e" style="font-size:6.75px; font-family:Arial;" text-anchor="middle"><textPath startOffset="21.46611528233685" xlink:href="#id83">November</textPath></text><path d="M 82.34701348167596 88.62581576622439 l -12.116929863309394 -7.807188459015658 a35.41430473338712,35.41430473338712 0 0,0 0.33458653407447314,-0.5095982460580853 l 11.980746693877 8.014604769051411" fill="#ffac0f" stroke="none" /><path d="M 84.07557802195018 86.31012108654704 l -47.77326593414944 -41.06963674035889 a84.0,84.0 0 0,0 0.9520325456886258,-1.0883377751882275 l 47.05924152488297 41.885890071750055" fill="#4dd2ff" stroke="none" /><path d="M 86.93701828274178 83.55741782278169 l -10.052462522615489 -12.653193940640731 a37.16030072950551,37.16030072950551 0 0,0 0.5042607594473579,-0.3935835212002906 l 9.833169208008705 12.824355851064244" fill="#ffc312" stroke="none" /><path d="M 87.51073957382395 83.11751280151077 l -8.293318405162685 -11.210579091993756 a34.944755779405305,34.944755779405305 0 0,0 0.48665511888382557,-0.3535756403406051 l 8.099117969925077 11.351673967151028" fill="#ffa60f" stroke="none" /><path d="M 88.09926311788651 82.69761687909137 l -5.934960276756675 -8.628789757561721 a31.472810805456277,31.472810805456277 0 0,0 0.449005065292659,-0.3031702244010309 l 5.785550517057476 8.729671894261418" fill="#ff760a" stroke="none" /><path d="M 89.00827224532344 82.1063720568725 l -7.693720090885862 -12.524742959204392 a35.699065107381514,35.699065107381514 0 0,0 0.5263707027529156,-0.3171324588066439 l 7.476987321915298 12.655322027469655" fill="#ffb010" stroke="none" /><line stroke="#e1ed5e" stroke-width="0.3" x1="56.762969772571076" x2="54.21961505331055" y1="26.818313649435495" y2="22.513508569990535" /><path d="M 56.25429882871897 25.957352633546506 a86.0,86.0 0 0,1 42.265352541879196,-11.944610805530505" fill="none" id="id84" stroke="none" /><text fill="#e1ed5e" style="font-size:6.75px; font-family:Arial;" text-anchor="middle"><textPath startOffset="22.20632615414155" xlink:href="#id84">December</textPath></text><path d="M 90.91171255644093 81.06846463323043 l -6.267925946162476 -13.056526046627598 a35.48308558535928,35.48308558535928 0 0,0 0.552897082564302,-0.25959259380441757 l 6.042250652298566 13.162483623072022" fill="#ffad10" stroke="none" /><path d="M 91.23893434514133 80.91482961587045 l -4.597026349831531 -10.01419628652277 a32.018928193161614,32.018928193161614 0 0,0 0.5028769078872873,-0.22562621005900235 l 4.42396732347747 10.091842827098302" fill="#ff7e0b" stroke="none" /><path d="M 94.28887869178378 79.79150937346287 l -4.338886960708893 -15.352914382845759 a36.95424457957198,36.95424457957198 0 0,0 0.6136201470018838,-0.1677255658109575 l 4.073968924483287 15.425326489483012" fill="#ffc011" stroke="none" /></svg>