<?xml version="1.0" encoding="utf-8" ?>
<svg baseProfile="full" height="200mm" version="1.1" viewBox="0,0,200,200" width="200mm" xmlns="http://www.w3.org/2000/svg" xmlns:ev="http://www.w3.org/2001/xml-events" xmlns:xlink="http://www.w3.org/1999/xlink"><defs /><rect fill="#1a1a1a" height="200" width="200" x="0" y="0" /><text alignment-baseline="middle" fill="#e1ed5e" style="dominant-baseline: central; font-size:9.0px; font-family:Arial;" text-anchor="middle" x="100.0" y="100.0">2025</text><line stroke="#e1ed5e" stroke-width="0.3" x1="100.0" x2="100.0" y1="15.0" y2="10.0" /><path d="M 100.0 14.0 a86.0,86.0 0 0,1 42.46469731375804,11.215312516191453" fill="none" id="id97" stroke="none" /><text fill="#e1ed5e" style="font-size:6.75px; font-family:Arial;" text-anchor="middle"><textPath startOffset="22.20632615414155" xlink:href="#id97">January</textPath></text><path d="M 103.59715602781102 79.31037775812273 l 6.2737910225145885 -36.084719505285456 a57.62604859344389,57.62604859344389 0 0,0 0.9758144776852364,0.17832385854780486 l -6.894000621302726 35.97138016538691" fill="#73ff27" stroke="none" /><path d="M 104.66035177308747 79.52364482259891 l 6.381948948179098 -28.040598596354855 a49.757684921061745,49.757684921061745 0 0,0 0.8335035688957876,0.19726336533738334 l -6.863676204037409 27.9265893188766" fill="#d8ff1c" stroke="none" /><path d="M 106.74666289553966 80.11325718540242 l 3.963804289288918 -11.683873596322945 a33.33793526724134,33.33793526724134 0 0,0 0.5418493930515774,0.18904061374396544 l -4.164335686403769 11.613912129406772" fill="#ff2f04" stroke="none" /><path d="M 107.08798089147638 80.2323363322302 l 4.198472511090046 -11.709116289719255 a33.4390745520938,33.4390745520938 0 0,0 0.5401488141846992,0.19894136676758503 l -4.399403651047321 11.635111655145346" fill="#ff3004" stroke="none" /><path d="M 108.09893153111575 80.62456947434976 l 12.681744382764201 -30.339095507633232 a53.88293412715876,53.88293412715876 0 0,0 0.8526749613509228,0.36507091916009504 l -13.202103101905438 30.116305060510346" fill="#a2ff22" stroke="none" /><path d="M 108.43124777332544 80.76684994638697 l 6.103721017659533 -13.923654644505273 a36.20274872912369,36.20274872912369 0 0,0 0.568586375786621,0.2551081329204187 l -6.342489511912934 13.816526181068324" fill="#ff5d08" stroke="none" /><line stroke="#e1ed5e" stroke-width="0.3" x1="143.23703022742887" x2="145.7803849466894" y1="26.81831364943548" y2="22.513508569990506" /><path d="M 143.74570117128098 25.957352633546492 a86.0,86.0 0 0,1 28.547481713284135,27.462654790039103" fill="none" id="id98" stroke="none" /><text fill="#e1ed5e" style="font-size:6.75px; font-family:Arial;" text-anchor="middle"><textPath startOffset="19.985693538727396" xlink:href="#id98">February</textPath></text><path d="M 112.19680574252982 82.90503203632743 l 7.351772943994898 -10.30419977220362 a33.65800530753312,33.65800530753312 0 0,0 0.46873529973224276,0.3405561296328122 l -7.528053560080929 10.176124407754132" fill="#ff3404" stroke="none" /><path d="M 112.48926042617603 83.11751280151076 l 22.917699105290758 -30.97923724554468 a59.534842319599385,59.534842319599385 0 0,0 0.818614985960596,0.6165638357570516 l -23.44756024500974 30.580156820281783" fill="#5cff2a" stroke="none" /><path d="M 113.34407831869373 83.78471172551755 l 13.651812331073597 -16.589236598482636 a42.48429079218788,42.48429079218788 0 0,0 0.5606762376520019,0.4695502248481535 l -13.935346105684715 16.351785216240664" fill="#ffbe11" stroke="none" /><path d="M 113.6212207817346 84.01681056812373 l 19.126128052057105 -22.44266741232735 a50.486981785934375,50.486981785934375 0 0,0 0.6565860863498354,0.5693849839758431 l -19.509607937053705 22.110117434931833" fill="#cfff1d" stroke="none" /><path d="M 113.89432698308785 84.25364557470407 l 14.590069974572188 -16.534835633933323 a43.05155167565548,43.05155167565548 0 0,0 0.551447350842608,0.4950948763662197 l -14.872528313010786 16.281241748797807" fill="#ffc612" stroke="none" /><path d="M 114.16331599549186 84.49514656593476 l 16.881363767785952 -18.480352416762614 a46.030059290941765,46.030059290941765 0 0,0 0.5803998480331973,0.5394184044863406 l -17.196971499613998 18.187029426201633" fill="#fff216" stroke="none" /><path d="M 114.42810811169701 84.74124197986012 l 16.41456820750123 -17.359581890039156 a44.89127733788391,44.89127733788391 0 0,0 0.5569014267695654,0.5357387313198998 l -16.710952877883212 17.074460071956953" fill="#ffe115" stroke="none" /><path d="M 114.94478906791727 85.2469230424477 l 31.463800561999477 -31.060182178465872 a65.21205336517144,65.21205336517144 0 0,0 0.7817240128244561,0.8056353106962918 l -31.993788838527042 30.513982672219466" fill="#32ff48" stroke="none" /><path d="M 115.19652480421416 85.50635884689758 l 6.9010637293148305 -6.581869378428073 a30.5365447155012,30.5365447155012 0 0,0 0.35950627275152713,0.38349622592135646 l -7.01333732403682 6.462103735628662" fill="#ff0000" stroke="none" /><path d="M 115.68641384162765 86.03803664274999 l 17.979130081574112 -16.002635014512812 a45.069346603052495,45.069346603052495 0 0,0 0.5108033902265029,0.583936576323243 l -18.251925335378463 15.690782881986623" fill="#ffe415" stroke="none" /><path d="M 116.38621287248628 86.86637796730983 l 13.518436534050949 -10.835086623904953 a38.324757674284726,38.324757674284726 0 0,0 0.4081512221942352,0.5183106037811203 l -13.702941836839148 10.600783626170795" fill="#ff7f0b" stroke="none" /><path d="M 116.60985879189232 87.15038557335679 l 20.93397217936505 -16.194807812226497 a47.46701704539789,47.46701704539789 0 0,0 0.49438946064860145,0.6505585785323806 l -21.209637580237764 15.832064457813084" fill="#f8ff18" stroke="none" /><path d="M 117.04232023915458 87.72973835380427 l 30.94889662053521 -22.28282615664945 a59.13605306735395,59.13605306735395 0 0,0 0.5876641899887929,0.8312093209740792 l -31.327873430327884 21.74679033534358" fill="#61ff29" stroke="none" /><path d="M 117.45458315368197 88.32363383020206 l 30.529708116578263 -20.42306297936556 a57.73097574449387,57.73097574449387 0 0,0 0.5454295157989337,0.8307265723299572 l -30.876734267735124 19.894518343057932" fill="#72ff27" stroke="none" /><path d="M 117.65298651832404 88.62581576622439 l 32.685548593703 -21.05997481507729 a59.88274200828704,59.88274200828704 0 0,0 0.5508425341487664,0.8713006039026393 l -33.04321872409772 20.494226563460444" fill="#58ff2a" stroke="none" /><line stroke="#e1ed5e" stroke-width="0.3" x1="172.23445277983987" x2="176.4835382374775" y1="55.19839476539836" y2="52.563006222186495" /><path d="M 173.08426987136738 54.67131705675599 a86.0,86.0 0 0,1 12.851231095245387,41.99856678651699" fill="none" id="id99" stroke="none" /><text fill="#e1ed5e" style="font-size:6.75px; font-family:Arial;" text-anchor="middle"><textPath startOffset="22.20632615414155" xlink:href="#id99">March</textPath></text><path d="M 118.03404312379186 89.2402003453031 l 24.870242428913567 -14.838537540470663 a49.960510265064215,49.960510265064215 0 0,0 0.43427656225777983,0.7423194177145039 l -25.121978665641674 14.408238710402264" fill="#d6ff1c" stroke="none" /><path d="M 118.56541770881063 90.18545643968196 l 29.878910872274503 -15.795382408855321 a54.79709189198532,54.79709189198532 0 0,0 0.43365522679553486,0.8376838684825608 l -30.146375532230152 15.278725818112417" fill="#96ff23" stroke="none" /><path d="M 119.04729006885535 91.15688171328212 l 57.14187020656606 -26.529354860153646 a84.0,84.0 0 0,0 0.5975907321466121,1.3167119646317489 l -57.59006325567602 25.541820886679833" fill="#4dd2ff" stroke="none" /><path d="M 119.196687751892 91.48605970444005 l 18.690961786650465 -8.289645316674509 a41.446766785638545,41.446766785638545 0 0,0 0.28363263971809866,0.6546632379483754 l -18.830885136211243 7.966682934139531" fill="#ffaf10" stroke="none" /><line stroke="#e1ed5e" stroke-width="0.3" x1="184.98032266829074" x2="189.97916517819016" y1="98.17113171792111" y2="98.06355123074" /><path d="M 185.9800911702706 98.14961562048488 a86.0,86.0 0 0,1 -9.607161424134198,41.387399972396054" fill="none" id="id100" stroke="none" /><text fill="#e1ed5e" style="font-size:6.75px; font-family:Arial;" text-anchor="middle"><textPath startOffset="21.466115282336823" xlink:href="#id100">April</textPath></text><line stroke="#e1ed5e" stroke-width="0.3" x1="174.80103733775053" x2="179.2010983576182" y1="140.37084112569926" y2="142.7455964860345" /><path d="M 175.68104954172406 140.8457921977663 a86.0,86.0 0 0,1 -30.038265399797805,32.042727171017184" fill="none" id="id101" stroke="none" /><text fill="#e1ed5e" style="font-size:6.75px; font-family:Arial;" text-anchor="middle"><textPath startOffset="22.206326154141568" xlink:href="#id101">May</textPath></text><line stroke="#e1ed5e" stroke-width="0.3" x1="143.8653032363475" x2="146.44561519142675" y1="172.8068346515853" y2="177.08958963109032" /><path d="M 144.38136562736335 173.6633856474863 a86.0,86.0 0 0,1 -40.68145358897372,12.25698825130547" fill="none" id="id102" stroke="none" /><text fill="#e1ed5e" style="font-size:6.75px; font-family:Arial;" text-anchor="middle"><textPath startOffset="21.466115282336833" xlink:href="#id102">June</textPath></text><line stroke="#e1ed5e" stroke-width="0.3" x1="102.19456741930631" x2="102.32365962044197" y1="184.97166512339345" y2="189.96999836594603" /><path d="M 102.22038585953345 185.97133177190398 a86.0,86.0 0 0,1 -42.740103519485714,-10.115201625700543" fill="none" id="id103" stroke="none" /><text fill="#e1ed5e" style="font-size:6.75px; font-family:Arial;" text-anchor="middle"><textPath startOffset="22.20632615414155" xlink:href="#id103">July</textPath></text><line stroke="#e1ed5e" stroke-width="0.3" x1="58.666819895761336" x2="56.23545636021788" y1="174.27360380694188" y2="178.64263932499728" /><path d="M 58.180547188652646 175.14741091055294 a86.0,86.0 0 0,1 -31.652253787137756,-30.449443065178592" fill="none" id="id104" stroke="none" /><text fill="#e1ed5e" style="font-size:6.75px; font-family:Arial;" text-anchor="middle"><textPath startOffset="22.20632615414155" xlink:href="#id104">August</textPath></text><line stroke="#e1ed5e" stroke-width="0.3" x1="26.63291911575756" x2="22.317208475507996" y1="142.92168965132927" y2="145.44649492493687" /><path d="M 25.769776987707644 143.4266507060508 a86.0,86.0 0 0,1 -11.730757126820373,-40.83630448921669" fill="none" id="id105" stroke="none" /><text fill="#e1ed5e" style="font-size:6.75px; font-family:Arial;" text-anchor="middle"><textPath startOffset="21.46611528233685" xlink:href="#id105">September</textPath></text><line stroke="#e1ed5e" stroke-width="0.3" x1="15.007084014347285" x2="10.007500721073583" y1="101.09737516637583" y2="101.16192664675087" /><path d="M 14.007167355692545 101.11028546245083 a86.0,86.0 0 0,1 10.666146001902534,-42.60595125391555" fill="none" id="id106" stroke="none" /><text fill="#e1ed5e" style="font-size:6.75px; font-family:Arial;" text-anchor="middle"><textPath startOffset="22.20632615414155" xlink:href="#id106">October</textPath></text><line stroke="#e1ed5e" stroke-width="0.3" x1="26.266209847984243" x2="21.928928074336255" y1="57.711370442889674" y2="55.22380399835377" /><path d="M 25.398753493254645 57.213857153982495 a86.0,86.0 0 0,1 29.58750427330803,-30.492523968695096" fill="none" id="id107" stroke="none" /><text fill="#e1ed5e" style="font-size:6.75px; font-family:Arial;" text-anchor="middle"><textPath startOffset="21.46611528233685" xlink:href="#id107">November</textPath></text><line stroke="#e1ed5e" stroke-width="0.3" x1="56.762969772571076" x2="54.21961505331055" y1="26.818313649435495" y2="22.513508569990535" /><path d="M 56.25429882871897 25.957352633546506 a86.0,86.0 0 0,1 42.265352541879196,-11.944610805530505" fill="none" id="id108" stroke="none" /><text fill="#e1ed5e" style="font-size:6.75px; font-family:Arial;" text-anchor="middle"><textPath startOffset="22.20632615414155" xlink:href="#id108">December</textPath></text></svg>