<?xml version="1.0" encoding="utf-8" ?>
<svg baseProfile="full" height="200mm" version="1.1" viewBox="0,0,200,200" width="200mm" xmlns="http://www.w3.org/2000/svg" xmlns:ev="http://www.w3.org/2001/xml-events" xmlns:xlink="http://www.w3.org/1999/xlink"><defs /><rect fill="#1a1a1a" height="200" width="200" x="0" y="0" /><text alignment-baseline="middle" fill="#e1ed5e" style="dominant-baseline: central; font-size:9.0px; font-family:Arial;" text-anchor="middle" x="100.0" y="100.0">2018</text><line stroke="#e1ed5e" stroke-width="0.3" x1="100.0" x2="100.0" y1="15.0" y2="10.0" /><path d="M 100.0 14.0 a86.0,86.0 0 0,1 42.46469731375804,11.215312516191453" fill="none" id="id13" stroke="none" /><text fill="#e1ed5e" style="font-size:6.75px; font-family:Arial;" text-anchor="middle"><textPath startOffset="22.20632615414155" xlink:href="#id13">January</textPath></text><line stroke="#e1ed5e" stroke-width="0.3" x1="143.23703022742887" x2="145.7803849466894" y1="26.81831364943548" y2="22.513508569990506" /><path d="M 143.74570117128098 25.957352633546492 a86.0,86.0 0 0,1 28.547481713284135,27.462654790039103" fill="none" id="id14" stroke="none" /><text fill="#e1ed5e" style="font-size:6.75px; font-family:Arial;" text-anchor="middle"><textPath startOffset="19.985693538727396" xlink:href="#id14">February</textPath></text><line stroke="#e1ed5e" stroke-width="0.3" x1="172.23445277983987" x2="176.4835382374775" y1="55.19839476539836" y2="52.563006222186495" /><path d="M 173.08426987136738 54.67131705675599 a86.0,86.0 0 0,1 12.851231095245387,41.99856678651699" fill="none" id="id15" stroke="none" /><text fill="#e1ed5e" style="font-size:6.75px; font-family:Arial;" text-anchor="middle"><textPath startOffset="22.20632615414155" xlink:href="#id15">March</textPath></text><path d="M 120.53481517161879 95.60439243477599 l 22.965776066921087 -4.915970179294343 a44.48603059607299,44.48603059607299 0 0,0 0.15383842208732432,0.7501707807013683 l -23.04699378492341 4.519923742429563" fill="#ffed16" stroke="none" /><path d="M 120.6074358757038 95.95851677861258 l 34.86911077195196 -6.838450304032823 a56.533354592373946,56.533354592373946 0 0,0 0.1790607216980469,0.9565495352977603 l -34.981657217559864 6.2372226912725" fill="#76ff27" stroke="none" /><path d="M 120.78858239683441 97.02765380044208 l 41.636146419090345 -5.953125576848621 a63.05958146208375,63.05958146208375 0 0,0 0.14438842735406143,1.0758614949973202 l -41.73245084550224 5.235545739786637" fill="#30ff33" stroke="none" /><path d="M 120.83666639777658 97.38593545837742 l 26.69581566670489 -3.349124270256217 a47.90507772685865,47.90507772685865 0 0,0 0.0956040427080134,0.8190770535172966 l -26.74951006241649 2.889103478414068" fill="#e3ff1b" stroke="none" /><path d="M 120.87857604477298 97.74499172005257 l 41.55076071719026 -4.4877250850081705 a62.79240831318306,62.79240831318306 0 0,0 0.10681549096581038,1.0756174169642954 l -41.621853333838295 3.7718321373394406" fill="#2fff30" stroke="none" /><path d="M 120.91429891909075 98.10471618934814 l 39.36931997946703 -3.5677043290868657 a60.53064469276269,60.53064469276269 0 0,0 0.0851046918710752,1.0384928031068492 l -39.424899155157604 2.8894976087722477" fill="#48ff2c" stroke="none" /><path d="M 120.98425023603335 99.18683210126433 l 40.512765217723015 -1.5699240999088766 a61.543172141136445,61.543172141136445 0 0,0 0.031909564878167915,1.058923110321654 l -40.53378647705683 0.8723308421622233" fill="#3dff2e" stroke="none" /><line stroke="#e1ed5e" stroke-width="0.3" x1="184.98032266829074" x2="189.97916517819016" y1="98.17113171792111" y2="98.06355123074" /><path d="M 185.9800911702706 98.14961562048488 a86.0,86.0 0 0,1 -9.607161424134198,41.387399972396054" fill="none" id="id16" stroke="none" /><text fill="#e1ed5e" style="font-size:6.75px; font-family:Arial;" text-anchor="middle"><textPath startOffset="21.466115282336823" xlink:href="#id16">April</textPath></text><path d="M 120.99513854157772 99.54816195383933 l 43.25669856279456 -0.9309308496949459 a64.26671472158924,64.26671472158924 0 0,0 0.014282490484450579,1.1061946278774473 l -43.26631406039673 0.18619996375703582" fill="#31ff44" stroke="none" /><path d="M 120.99824983174949 100.27111621757518 l 23.294056109918216 0.3007582267621294 a44.2959976296999,44.2959976296999 0 0,0 -0.016406261565184006,0.7623345077671655 l -23.285427785668023 -0.7016825503194097" fill="#ffea16" stroke="none" /><path d="M 120.9904718944345 100.63252640178507 l 38.61543741685666 1.1636367112412147 a59.63296593960813,59.63296593960813 0 0,0 -0.03974925404339807,1.02575162502025 l -38.58968602996206 -1.8281655832754709" fill="#52ff2b" stroke="none" /><path d="M 120.95626037817324 101.35467743843564 l 42.86442931067989 2.770889187799794 a63.953895364929814,63.953895364929814 0 0,0 -0.08047057154106235,1.0979570145110422 l -42.81038218047449 -3.508319338807606" fill="#31ff3f" stroke="none" /><path d="M 120.92983693683757 101.71520430193887 l 43.12456120075315 3.534066372039979 a64.26912760709982,64.26912760709982 0 0,0 -0.09984791595722832,1.1018134323953719 l -43.05733868851885 -4.275861192983921" fill="#31ff44" stroke="none" /><path d="M 120.8583938346157 102.4346265915055 l 40.07677268138713 4.67782789247657 a61.3488510660119,61.3488510660119 0 0,0 -0.1314574146385918,1.0478449367735856 l -39.990313757501696 -5.36699058353755" fill="#3fff2d" stroke="none" /><path d="M 120.76222939487914 103.15116336523771 l 28.339367655704397 4.301174765590621 a49.66391221535082,49.66391221535082 0 0,0 -0.13555468189232794,0.8440991335405744 l -28.26113121945078 -4.7883531288244" fill="#ccff1d" stroke="none" /><path d="M 120.70491114924044 103.5080841355445 l 41.387976479517484 7.012466880130059 a62.97784283183229,62.97784283183229 0 0,0 -0.19029372292777053,1.0672682563390241 l -41.26113631425053 -7.723853887202302" fill="#30ff32" stroke="none" /><path d="M 120.41448212921028 104.9243191809786 l 41.602330198725014 10.03518733780938 a63.795547231793606,63.795547231793606 0 0,0 -0.2666917735860252,1.0653010659332638 l -41.42342711084393 -10.749816243140039" fill="#31ff3d" stroke="none" /><path d="M 120.32669344350535 105.2749913415812 l 38.3515519403786 9.952632236225215 a60.621918487941834,60.621918487941834 0 0,0 -0.2708123232955144,1.0077933996396835 l -38.174551540741305 -10.611316569040445" fill="#47ff2c" stroke="none" /><path d="M 120.23288151984713 105.62410040840565 l 37.88280138540804 10.530219263836898 a60.319106787295595,60.319106787295595 0 0,0 -0.28668052351551226,0.9979725113088898 l -37.695928225006426 -11.180749250650369" fill="#4aff2c" stroke="none" /><path d="M 120.13307415673323 105.97154293290107 l 46.419415993068974 13.768167412729767 a69.41822606253291,69.41822606253291 0 0,0 -0.34964713416823817,1.1426670649095925 l -46.1755420863946 -14.565161450191416" fill="#39ff86" stroke="none" /><path d="M 119.9155931802556 106.66101706037122 l 39.72980441437046 13.288125671883055 a62.89309779278548,62.89309779278548 0 0,0 -0.3522288081340775,1.0237417910880071 l -39.495184775293154 -13.970040166060363" fill="#30ff31" stroke="none" /><path d="M 119.67450827220406 107.3425965602758 l 37.84804852063759 14.1250265082052 a61.39791022661986,61.39791022661986 0 0,0 -0.37805242920506094,0.9869755970571986 l -37.59930181183903 -14.774425672095543" fill="#3eff2d" stroke="none" /><path d="M 119.54520255179757 107.68017299344265 l 40.242699664236355 15.813133392985298 a64.23806267596035,64.23806267596035 0 0,0 -0.4132568729853341,1.0256696678001176 l -39.96454017699363 -16.503502428628227" fill="#31ff43" stroke="none" /><path d="M 119.41010516605496 108.01547362559984 l 21.68536209641803 8.955049262144161 a44.46162476343427,44.46162476343427 0 0,0 -0.2982083915488313,0.7048765482866384 l -21.528002723676888 -9.327000336096964" fill="#ffec16" stroke="none" /><path d="M 118.97047184881838 109.00673069616215 l 36.233847440894316 17.20297252418035 a61.11027255003022,61.11027255003022 0 0,0 -0.4593360718766423,0.9463683589162808 l -35.93235811240296 -17.824129839061907" fill="#42ff2d" stroke="none" /><line stroke="#e1ed5e" stroke-width="0.3" x1="174.80103733775053" x2="179.2010983576182" y1="140.37084112569926" y2="142.7455964860345" /><path d="M 175.68104954172406 140.8457921977663 a86.0,86.0 0 0,1 -30.038265399797805,32.042727171017184" fill="none" id="id17" stroke="none" /><text fill="#e1ed5e" style="font-size:6.75px; font-family:Arial;" text-anchor="middle"><textPath startOffset="22.206326154141568" xlink:href="#id17">May</textPath></text><path d="M 117.35343817320211 111.8261652097733 l 36.32696362292486 24.75640095560737 a64.96052404528525,64.96052404528525 0 0,0 -0.6376620712841591,0.9185997727694131 l -35.89544064447856 -25.3780419905638" fill="#32ff4d" stroke="none" /><path d="M 117.14729908036423 112.12312394758627 l 32.25165934482191 22.801892118411676 a60.49804823879432,60.49804823879432 0 0,0 -0.6084957290413777,0.8451473470980301 l -31.85438382340493 -23.353673070960834" fill="#48ff2c" stroke="none" /><path d="M 116.93607887273984 112.41649034213515 l 23.59770120369198 17.300381705463323 a50.26012148391486,50.26012148391486 0 0,0 -0.5175326193063114,0.693319517532729 l -23.296407317690573 -17.704014102505365" fill="#c4ff1e" stroke="none" /><path d="M 116.71984013943494 112.70617746262583 l 31.81824774783337 24.180153581745234 a60.96349230209105,60.96349230209105 0 0,0 -0.6421289950381572,0.8300382859464358 l -31.397311935577147 -24.724269861804924" fill="#43ff2d" stroke="none" /><path d="M 116.27256486870786 113.27417163493432 l 30.605561969726498 24.966161502358663 a60.49695739730625,60.49695739730625 0 0,0 -0.6651899741575192,0.8012641751870735 l -30.171275995675437 -25.489286934659507" fill="#48ff2c" stroke="none" /><path d="M 115.80600337817218 113.82643327865902 l 18.723759327155687 16.378764629400276 a45.876557119636615,45.876557119636615 0 0,0 -0.5250487863003419,0.5898978774124018 l -18.43905169120701 -16.698636676553544" fill="#feff18" stroke="none" /><path d="M 115.56566222782051 114.09645910891815 l 29.508936889836825 26.723663672449817 a60.811198882306805,60.811198882306805 0 0,0 -0.7093296000146471,0.7698371865184636 l -29.044560881826456 -27.227652113769615" fill="#45ff2d" stroke="none" /><path d="M 115.07121518719521 114.62390073753431 l 5.649245607021291 5.481575703943343 a28.87157215088011,28.87157215088011 0 0,0 -0.34915268652864373,0.3536898280731912 l -5.554052295437111 -5.578006025997199" fill="#ff0000" stroke="none" /><path d="M 114.55890576462653 115.13401014063108 l 27.736992964294924 28.832656765466766 a61.00828507767563,61.00828507767563 0 0,0 -0.7630804902464482,0.721540232610728 l -27.236576639657667 -29.305831634823413" fill="#43ff2d" stroke="none" /><path d="M 113.75828350139079 115.86535959552629 l 25.658977249629302 29.58864024553974 a60.16466194258503,60.16466194258503 0 0,0 -0.7882559804988664,0.6717688474294233 l -25.14585579255339 -30.02593348319211" fill="#4cff2c" stroke="none" /><path d="M 113.20401910651253 116.32954008644616 l 24.89876697469376 30.79254961209547 a60.59961752938356,60.59961752938356 0 0,0 -0.8167746517088706,0.6488951812675637 l -24.36503483026754 -31.21657870736816" fill="#47ff2c" stroke="none" /><path d="M 112.34349029814194 116.9893568818739 l 23.018688725255625 31.682506994395478 a60.16173234268536,60.16173234268536 0 0,0 -0.8430454160820098,0.6014905201304291 l -22.469915981324732 -32.07404177637012" fill="#4cff2c" stroke="none" /><path d="M 112.04921762599082 117.19931262002967 l 13.505630128263423 19.27822717762497 a44.53831107521469,44.53831107521469 0 0,0 -0.6316871106798612,0.434480154756208 l -13.171786132960678 -19.50784812174627" fill="#ffed16" stroke="none" /><line stroke="#e1ed5e" stroke-width="0.3" x1="143.8653032363475" x2="146.44561519142675" y1="172.8068346515853" y2="177.08958963109032" /><path d="M 144.38136562736335 173.6633856474863 a86.0,86.0 0 0,1 -40.68145358897372,12.25698825130547" fill="none" id="id18" stroke="none" /><text fill="#e1ed5e" style="font-size:6.75px; font-family:Arial;" text-anchor="middle"><textPath startOffset="21.466115282336833" xlink:href="#id18">June</textPath></text><path d="M 110.8373102113329 117.98757091392108 l 14.171417730577122 23.521462097946394 a48.46066750316977,48.46066750316977 0 0,0 -0.7182150818284394,0.42433412990860736 l -13.7644347777203 -23.76191480014875" fill="#dcff1b" stroke="none" /><path d="M 110.21172684928248 118.3499491758327 l 15.10883847112286 27.149807485347154 a52.07071042699047,52.07071042699047 0 0,0 -0.7869550313961938,0.42911062899527114 l -14.639260627858016 -27.405858766102195" fill="#adff20" stroke="none" /><path d="M 109.2508944713604 118.85261126421891 l 17.43221158947101 35.525506164765474 a60.57200511931228,60.57200511931228 0 0,0 -0.9399832924861392,0.4512491030839601 l -16.81811562898464 -35.820309544348994" fill="#48ff2c" stroke="none" /><path d="M 105.53697534728816 120.25689768951611 l 10.38889759421222 38.00754427701895 a60.40180979590385,60.40180979590385 0 0,0 -1.005286180721453,0.2655052172324499 l -9.733120970679272 -38.180740843554986" fill="#49ff2c" stroke="none" /><path d="M 105.18746579009965 120.34920634021253 l 9.662282159372092 37.90285687351776 a60.1150387408947,60.1150387408947 0 0,0 -1.0049136613107472,0.24698332852227314 l -9.008415213318132 -38.063561460354066" fill="#4dff2c" stroke="none" /><path d="M 104.13013068566511 120.58985236759428 l 7.86937252748333 39.231014923778666 a61.01249249829425,61.01249249829425 0 0,0 -1.0314957501235904,0.19768861549176248 l -7.192909162788036 -39.36066073761889" fill="#43ff2d" stroke="none" /><path d="M 103.41894727170886 120.7198165907248 l 5.327285444698477 32.28490192111674 a53.72147402342113,53.72147402342113 0 0,0 -0.9136849464406042,0.14269879775404376 l -4.770764634649356 -32.37181902621789" fill="#98ff23" stroke="none" /><path d="M 103.06178313531738 120.77559828337769 l 6.711048927993007 45.537534967715025 a67.02939570154908,67.02939570154908 0 0,0 -1.1429195309880518,0.15839823268845954 l -5.926200805818125 -45.64630776589609" fill="#35ff68" stroke="none" /><path d="M 101.62511606390274 120.93702456842531 l 2.19046606425844 28.22065624872552 a49.30553975262437,49.30553975262437 0 0,0 -0.8467339873662454,0.05839573324599428 l -1.7043693161132643 -28.2541803264878" fill="#d0ff1d" stroke="none" /><line stroke="#e1ed5e" stroke-width="0.3" x1="102.19456741930631" x2="102.32365962044197" y1="184.97166512339345" y2="189.96999836594603" /><path d="M 102.22038585953345 185.97133177190398 a86.0,86.0 0 0,1 -42.740103519485714,-10.115201625700543" fill="none" id="id19" stroke="none" /><text fill="#e1ed5e" style="font-size:6.75px; font-family:Arial;" text-anchor="middle"><textPath startOffset="22.20632615414155" xlink:href="#id19">July</textPath></text><path d="M 100.54218724476979 120.99299961872073 l 0.9212139619493158 35.668571215048225 a56.68046535131874,56.68046535131874 0 0,0 -0.9755526177908825,0.016795023022684975 l -0.30710165426576524 -35.679143715350065" fill="#74ff27" stroke="none" /><path d="M 99.09653310690486 120.98055641714683 l -2.239584358106613 52.00824328519966 a73.05644155827011,73.05644155827011 0 0,0 -1.2559165277041977,-0.0649165388925345 l 3.1344889542242997 -51.96198693954492" fill="#3effb3" stroke="none" /><path d="M 97.65516085044442 120.86867818915974 l -4.371218303512336 38.90311541747029 a60.14792381010742,60.14792381010742 0 0,0 -1.0278781150400926,-0.12446172511601115 l 5.040223841603818 -38.822108163628926" fill="#4cff2c" stroke="none" /><path d="M 96.58105272829116 120.7198165907248 l -8.927584616027671 54.103763861153276 a75.83538119699514,75.83538119699514 0 0,0 -1.2861356672437612,-0.22361117152949045 l 9.857569254743481 -53.94207411110278" fill="#42ffd4" stroke="none" /><path d="M 95.51606077576429 120.51570834832081 l -10.307107423833298 47.15889293932594 a69.27212080185876,69.27212080185876 0 0,0 -1.162715561498988,-0.26463027632029446 l 11.117343134725148 -46.974485929427956" fill="#38ff85" stroke="none" /><path d="M 94.81253420990036 120.34920634021253 l -13.18321714273079 51.71465542524629 a74.36855628536664,74.36855628536664 0 0,0 -1.2377391036213015,-0.32689814690203983 l 14.071446689163581 -51.48006592904067" fill="#40ffc3" stroke="none" /><path d="M 93.76903079525671 120.05430185196036 l -14.253283319330658 45.87402644355466 a69.03730204252797,69.03730204252797 0 0,0 -1.1318128326548573,-0.36237072754485156 l 15.040817497076455 -45.6218828693501" fill="#38ff82" stroke="none" /><path d="M 91.7346041902142 119.30500536409082 l -24.796187429357385 57.91501609227247 a84.0,84.0 0 0,0 -1.3243173013690268,-0.5805417868221912 l 25.789425405384158 -57.479609752155824" fill="#4dd2ff" stroke="none" /><line stroke="#e1ed5e" stroke-width="0.3" x1="58.666819895761336" x2="56.23545636021788" y1="174.27360380694188" y2="178.64263932499728" /><path d="M 58.180547188652646 175.14741091055294 a86.0,86.0 0 0,1 -31.652253787137756,-30.449443065178592" fill="none" id="id20" stroke="none" /><text fill="#e1ed5e" style="font-size:6.75px; font-family:Arial;" text-anchor="middle"><textPath startOffset="22.20632615414155" xlink:href="#id20">August</textPath></text><path d="M 88.8546689885994 117.79835938074946 l -4.661899552869182 7.444746464151343 a29.783937463150327,29.783937463150327 0 0,0 -0.432176559605633,-0.27583552806651845 l 4.789357914521738 -7.36339650726102" fill="#ff0f01" stroke="none" /><path d="M 87.36589467227662 116.77436683061367 l -7.547832158753137 10.021295701010478 a33.545761747450776,33.545761747450776 0 0,0 -0.4582531107688456,-0.35136894442245786 l 7.71921399801547 -9.889887414760652" fill="#ff4b07" stroke="none" /><path d="M 86.51685102203217 116.09983520530335 l -25.378741082013317 30.30401501949873 a60.52738070262024,60.52738070262024 0 0,0 -0.7930081925549753,-0.6758187856406876 l 25.89661475114535 -29.862671843635095" fill="#48ff2c" stroke="none" /><path d="M 85.18274418774928 114.88116024355367 l -37.13266581790325 37.29281300857894 a73.6268826061065,73.6268826061065 0 0,0 -0.890392242178878,-0.9019626404281216 l 37.76909868513766 -36.64810987417015" fill="#3fffba" stroke="none" /><path d="M 84.9287848128048 114.62390073753433 l -28.342799942958287 27.501584168326918 a60.49242256907173,60.49242256907173 0 0,0 -0.7186887201047185,-0.753542249750158 l 28.81199521444196 -27.00963480199426" fill="#48ff2c" stroke="none" /><path d="M 83.72743513129214 113.27417163493432 l -30.290936661617895 24.709509255203777 a60.0909285061272,60.0909285061272 0 0,0 -0.6469277420584435,-0.8071418279055816 l 30.7117823157312 -24.184439593719933" fill="#4dff2c" stroke="none" /><line stroke="#e1ed5e" stroke-width="0.3" x1="26.63291911575756" x2="22.317208475507996" y1="142.92168965132927" y2="145.44649492493687" /><path d="M 25.769776987707644 143.4266507060508 a86.0,86.0 0 0,1 -11.730757126820373,-40.83630448921669" fill="none" id="id21" stroke="none" /><text fill="#e1ed5e" style="font-size:6.75px; font-family:Arial;" text-anchor="middle"><textPath startOffset="21.46611528233685" xlink:href="#id21">September</textPath></text><path d="M 80.87730276802145 108.67885076344099 l -35.9303942523963 16.30703691039307 a60.45773287873436,60.45773287873436 0 0,0 -0.4219342738244449,-0.9513504000789527 l 36.20576961095202 -15.686138173821423" fill="#49ff2c" stroke="none" /><path d="M 79.18660465613746 102.79330883721812 l -16.602441489415984 2.2281682428839162 a37.75129240172464,37.75129240172464 0 0,0 -0.080892913431359,-0.6447961112953944 l 16.638335912094192 -1.9420543773011134" fill="#ff8c0c" stroke="none" /><path d="M 79.1416061653843 102.43462659150553 l -17.59839601599525 2.0541141972917614 a38.71787028599411,38.71787028599411 0 0,0 -0.0715685054896715,-0.6626354756940089 l 17.631146822985972 -1.7508823997129703" fill="#ff9a0e" stroke="none" /><line stroke="#e1ed5e" stroke-width="0.3" x1="15.007084014347285" x2="10.007500721073583" y1="101.09737516637583" y2="101.16192664675087" /><path d="M 14.007167355692545 101.11028546245083 a86.0,86.0 0 0,1 10.666146001902534,-42.60595125391555" fill="none" id="id22" stroke="none" /><text fill="#e1ed5e" style="font-size:6.75px; font-family:Arial;" text-anchor="middle"><textPath startOffset="22.20632615414155" xlink:href="#id22">October</textPath></text><line stroke="#e1ed5e" stroke-width="0.3" x1="26.266209847984243" x2="21.928928074336255" y1="57.711370442889674" y2="55.22380399835377" /><path d="M 25.398753493254645 57.213857153982495 a86.0,86.0 0 0,1 29.58750427330803,-30.492523968695096" fill="none" id="id23" stroke="none" /><text fill="#e1ed5e" style="font-size:6.75px; font-family:Arial;" text-anchor="middle"><textPath startOffset="21.46611528233685" xlink:href="#id23">November</textPath></text><line stroke="#e1ed5e" stroke-width="0.3" x1="56.762969772571076" x2="54.21961505331055" y1="26.818313649435495" y2="22.513508569990535" /><path d="M 56.25429882871897 25.957352633546506 a86.0,86.0 0 0,1 42.265352541879196,-11.944610805530505" fill="none" id="id24" stroke="none" /><text fill="#e1ed5e" style="font-size:6.75px; font-family:Arial;" text-anchor="middle"><textPath startOffset="22.20632615414155" xlink:href="#id24">December</textPath></text></svg>