<?xml version="1.0" encoding="utf-8" ?>
<svg baseProfile="full" height="200mm" version="1.1" viewBox="0,0,200,200" width="200mm" xmlns="http://www.w3.org/2000/svg" xmlns:ev="http://www.w3.org/2001/xml-events" xmlns:xlink="http://www.w3.org/1999/xlink"><defs /><rect fill="#1a1a1a" height="200" width="200" x="0" y="0" /><text alignment-baseline="middle" fill="#e1ed5e" style="dominant-baseline: central; font-size:9.0px; font-family:Arial;" text-anchor="middle" x="100.0" y="100.0">2025</text><line stroke="#e1ed5e" stroke-width="0.3" x1="100.0" x2="100.0" y1="15.0" y2="10.0" /><path d="M 100.0 14.0 a86.0,86.0 0 0,1 42.46469731375804,11.215312516191453" fill="none" id="id97" stroke="none" /><text fill="#e1ed5e" style="font-size:6.75px; font-family:Arial;" text-anchor="middle"><textPath startOffset="22.20632615414155" xlink:href="#id97">January</textPath></text><path d="M 103.59715602781102 79.31037775812273 l 3.889917713293066 -22.373488227308144 a43.70912669553119,43.70912669553119 0 0,0 0.7401513669172539,0.13525793137565137 l -4.27446420131322 22.303214814581754" fill="#ebff1a" stroke="none" /><path d="M 104.66035177308747 79.52364482259891 l 3.9569785110412785 -17.38591878178036 a38.830531422913495,38.830531422913495 0 0,0 0.6504600560589707,0.15394287974761908 l -4.255662254062773 17.315229989891872" fill="#ffd614" stroke="none" /><path d="M 106.74666289553966 80.11325718540242 l 2.4576643470588495 -7.244313159158639 a28.649848834504066,28.649848834504066 0 0,0 0.46565280895633726,0.1624571217122843 l -2.5819991600784604 7.200935184274147" fill="#ff4c07" stroke="none" /><path d="M 107.08798089147638 80.2323363322302 l 2.6031649015808775 -7.25996430211529 a28.712557887809396,28.712557887809396 0 0,0 0.46380033846776036,0.17082157882974483 l -2.7277475658212142 7.214079455479221" fill="#ff4d07" stroke="none" /><path d="M 108.09893153111575 80.62456947434976 l 7.863019653178857 -18.811048152051853 a41.388295923031194,41.388295923031194 0 0,0 0.6549525225049592,0.2804164895592656 l -8.185655933474132 18.672912134529795" fill="#fff717" stroke="none" /><path d="M 108.43124777332544 80.76684994638697 l 3.784469775672669 -8.633037128757882 a30.426109565960502,30.426109565960502 0 0,0 0.4778607143020346,0.21440217320184007 l -3.932512608441484 8.566614625039511" fill="#ff6509" stroke="none" /><line stroke="#e1ed5e" stroke-width="0.3" x1="143.23703022742887" x2="145.7803849466894" y1="26.81831364943548" y2="22.513508569990506" /><path d="M 143.74570117128098 25.957352633546492 a86.0,86.0 0 0,1 28.547481713284135,27.462654790039103" fill="none" id="id98" stroke="none" /><text fill="#e1ed5e" style="font-size:6.75px; font-family:Arial;" text-anchor="middle"><textPath startOffset="19.985693538727396" xlink:href="#id98">February</textPath></text><path d="M 112.19680574252982 82.90503203632743 l 4.558295247056577 -6.388878601687923 a28.84830079357592,28.84830079357592 0 0,0 0.40175336582457105,0.29189090604084467 l -4.667593929234937 6.309468460830403" fill="#ff4f07" stroke="none" /><path d="M 112.48926042617603 83.11751280151076 l 14.20958450443571 -19.207953097783044 a44.8926297002932,44.8926297002932 0 0,0 0.6172818806600149,0.4649239149176598 l -14.538112538854108 18.96051259335954" fill="#dcff1b" stroke="none" /><path d="M 113.34407831869373 83.78471172551755 l 8.464487646244736 -10.285769013164023 a34.320833131061846,34.320833131061846 0 0,0 0.4529409632170289,0.3793250308094911 l -8.640286146420882 10.138542824960712" fill="#ff9b0e" stroke="none" /><path d="M 113.6212207817346 84.01681056812373 l 11.858709356020046 -13.915052188934174 a39.28271492452144,39.28271492452144 0 0,0 0.5108739548513388,0.443024859411534 l -12.09647710951815 13.70886233610297" fill="#ffdc14" stroke="none" /><path d="M 113.89432698308785 84.25364557470407 l 9.046232402163453 -10.252038964639747 a34.67255000380118,34.67255000380118 0 0,0 0.44412071347862525,0.3987359616387659 l -9.221364103238068 10.094803994231684" fill="#ffa00e" stroke="none" /><path d="M 114.16331599549186 84.49514656593476 l 10.46689564717672 -11.45831124369365 a36.519304141817805,36.519304141817805 0 0,0 0.46047732505007394,0.4279634890022261 l -10.662580856021641 11.276443168616783" fill="#ffb811" stroke="none" /><path d="M 114.42810811169701 84.74124197986012 l 10.177469953537612 -10.763403633798326 a35.81322896735293,35.81322896735293 0 0,0 0.4442831545876461,0.4274000427082335 l -10.361236351737677 10.58662050432779" fill="#ffaf10" stroke="none" /><path d="M 114.94478906791727 85.2469230424477 l 19.508395273992804 -19.258141114444978 a48.41265192115168,48.41265192115168 0 0,0 0.5803425989264862,0.5980940617483947 l -19.8370021366224 18.91948285714647" fill="#b3ff20" stroke="none" /><path d="M 115.19652480421416 85.50635884689758 l 4.278843516605774 -4.080934508313716 a26.91291199839343,26.91291199839343 0 0,0 0.31684530033028896,0.33798847499266166 l -4.348456138906526 4.006676616442999" fill="#ff3304" stroke="none" /><path d="M 115.68641384162765 86.03803664274999 l 11.14754003168627 -9.922060390428388 a35.92363665965357,35.92363665965357 0 0,0 0.4071484673747924,0.46544108093853503 l -11.31668036263891 9.728703753286904" fill="#ffb010" stroke="none" /><path d="M 116.38621287248628 86.86637796730983 l 8.38179109586537 -6.718042604884137 a31.741811691505603,31.741811691505603 0 0,0 0.338044126636192,0.4292817119094269 l -8.496189303095527 6.572768499021672" fill="#ff780b" stroke="none" /><path d="M 116.60985879189232 87.15038557335679 l 12.9796209178574 -10.04121264895228 a37.41025626347013,37.41025626347013 0 0,0 0.389643958438213,0.5127257757532678 l -13.150540816519726 9.81630209731798" fill="#ffc412" stroke="none" /><path d="M 117.04232023915458 87.72973835380427 l 19.189141101299068 -13.815946348534784 a44.64536973090412,44.64536973090412 0 0,0 0.4436631070014003,0.627530001307238 l -19.424116828104353 13.483589846895754" fill="#dfff1b" stroke="none" /><path d="M 117.45458315368197 88.32363383020206 l 18.929233051939562 -12.662843591384416 a43.774184326875606,43.774184326875606 0 0,0 0.4135688311864052,0.6298937032234967 l -19.144398518483893 12.335131824183245" fill="#eaff1a" stroke="none" /><path d="M 117.65298651832404 88.62581576622439 l 20.265911629359003 -13.057745911632251 a45.108336783397924,45.108336783397924 0 0,0 0.4149374212283787,0.6563313529460492 l -20.48767664683334 12.706966910971996" fill="#daff1c" stroke="none" /><line stroke="#e1ed5e" stroke-width="0.3" x1="172.23445277983987" x2="176.4835382374775" y1="55.19839476539836" y2="52.563006222186495" /><path d="M 173.08426987136738 54.67131705675599 a86.0,86.0 0 0,1 12.851231095245387,41.99856678651699" fill="none" id="id99" stroke="none" /><text fill="#e1ed5e" style="font-size:6.75px; font-family:Arial;" text-anchor="middle"><textPath startOffset="22.20632615414155" xlink:href="#id99">March</textPath></text><path d="M 118.03404312379186 89.2402003453031 l 15.420213426131644 -9.200288917960485 a38.95628854416739,38.95628854416739 0 0,0 0.33862350439429406,0.5788173354315393 l -15.576296604996266 8.93349217017505" fill="#ffd814" stroke="none" /><path d="M 118.56541770881063 90.18545643968196 l 18.525721408135265 -9.793558248903425 a41.95509811159341,41.95509811159341 0 0,0 0.33202578747564954,0.6413681397173799 l -18.691556628771032 9.4732173869257" fill="#fffe18" stroke="none" /><path d="M 119.04729006885535 91.15688171328212 l 35.42948311308655 -16.44890737074422 a60.06167978149184,60.06167978149184 0 0,0 0.4272893237449652,0.9414753855258465 l -35.70737475379486 15.83660997637631" fill="#35ff2f" stroke="none" /><path d="M 119.196687751892 91.48605970444005 l 11.588894668543508 -5.139801124794971 a33.67754058329295,33.67754058329295 0 0,0 0.23046549768901628,0.5319461437951273 l -11.675650876075204 4.93955583641324" fill="#ff920d" stroke="none" /><path d="M 120.08093135843002 93.85539295169968 l 30.022256627543715 -9.186574386752385 a52.396322109021426,52.396322109021426 0 0,0 0.2564777583734827,0.8647154993119005 l -30.1759402830289 8.668429500693955" fill="#86ff25" stroke="none" /><path d="M 120.28053869075195 94.5502522615342 l 9.632948911600714 -2.5885476883161673 a30.97468214371748,30.97468214371748 0 0,0 0.13393403608576113,0.5161024761702354 l -9.676079279556777 2.422348786597081" fill="#ff6d0a" stroke="none" /><path d="M 120.53481517161879 95.60439243477599 l 5.888435253643973 -1.2604569523480564 a27.021828747571597,27.021828747571597 0 0,0 0.09344496330062033,0.45567082735706893 l -5.90925951285959 1.1589104688275755" fill="#ff3505" stroke="none" /><path d="M 120.67395015179393 96.31383870115 l 62.02185045538181 -11.058483896549978 a84.0,84.0 0 0,0 0.2415525539191079,1.4256568467366484 l -62.20301487082114 9.98924126149749" fill="#4dd2ff" stroke="none" /><path d="M 120.87857604477298 97.74499172005257 l 11.960375696028052 -1.2917905018037596 a33.029933893861966,33.029933893861966 0 0,0 0.05618686558165363,0.5657940686112901 l -11.980839687291933 1.0857209024880348" fill="#ff890c" stroke="none" /><path d="M 120.94382443527127 98.46500227214037 l 14.864798760225469 -1.089458727681569 a35.90466915101849,35.90466915101849 0 0,0 0.03987026975160693,0.6167754260582661 l -14.88134962098149 0.8334242373702676" fill="#ffb010" stroke="none" /><path d="M 120.98425023603335 99.18683210126433 l 14.958898960326605 -0.5796774389432431 a35.97012638685727,35.97012638685727 0 0,0 0.01865017745567456,0.6189085935460613 l -14.966660832237926 0.32209869797218277" fill="#ffb110" stroke="none" /><line stroke="#e1ed5e" stroke-width="0.3" x1="184.98032266829074" x2="189.97916517819016" y1="98.17113171792111" y2="98.06355123074" /><path d="M 185.9800911702706 98.14961562048488 a86.0,86.0 0 0,1 -9.607161424134198,41.387399972396054" fill="none" id="id100" stroke="none" /><text fill="#e1ed5e" style="font-size:6.75px; font-family:Arial;" text-anchor="middle"><textPath startOffset="21.466115282336823" xlink:href="#id100">April</textPath></text><path d="M 120.99824983174949 100.27111621757518 l 13.67944521376469 0.17662040763393744 a34.68058537215358,34.68058537215358 0 0,0 -0.01284492471770752,0.5968531784693655 l -13.674378226361977 -0.4120634018934177" fill="#ffa00e" stroke="none" /><path d="M 120.9764740272857 100.99374915477107 l 14.935691817378707 0.7075703523926201 a35.95244280601997,35.95244280601997 0 0,0 -0.03460619350557424,0.6179168321678878 l -14.921299272985603 -0.9645589008959312" fill="#ffb110" stroke="none" /><path d="M 120.92983693683757 101.71520430193887 l 15.285976939078251 1.2526888520139097 a36.3372200982444,36.3372200982444 0 0,0 -0.05645316551780932,0.6229559773226154 l -15.262149177283366 -1.5156262178850957" fill="#ffb610" stroke="none" /><path d="M 120.89721153311464 102.0752229133903 l 10.272104837861509 1.020083818096871 a31.322630904762647,31.322630904762647 0 0,0 -0.057898687745471945,0.5360699407341333 l -10.253023848614985 -1.1967500807157956" fill="#ff720a" stroke="none" /><path d="M 120.8583938346157 102.4346265915055 l 19.285669039476545 2.251055524733752 a40.41659808709184,40.41659808709184 0 0,0 -0.08660409120456466,0.6903198174258038 l -19.244063439025133 -2.5826930964469508" fill="#ffea16" stroke="none" /><path d="M 120.64145759157962 103.86396538481128 l 26.96653413897705 5.047984329548749 a48.43494321590596,48.43494321590596 0 0,0 -0.16045820218335619,0.818172916004105 l -26.87564600381803 -5.511420972620798" fill="#b2ff20" stroke="none" /><path d="M 120.49622156327973 104.57218783832717 l 14.904378058682685 3.3247892001629404 a36.27071408093485,36.27071408093485 0 0,0 -0.14117845915573063,0.6081931070593286 l -14.8449390335964 -3.580850964570834" fill="#ffb510" stroke="none" /><path d="M 120.23288151984713 105.62410040840565 l 15.571090643707665 4.328270155820073 a37.16145990857024,37.16145990857024 0 0,0 -0.1766184439493966,0.6148319735509005 l -15.494279562872169 -4.595659604875555" fill="#ffc111" stroke="none" /><path d="M 120.13307415673323 105.97154293290107 l 11.701365651332711 3.470667560082396 a33.2052239397234,33.2052239397234 0 0,0 -0.16724874789338917,0.5465785850633856 l -11.639890130933189 -3.671573117697839" fill="#ff8c0c" stroke="none" /><path d="M 119.67450827220406 107.3425965602758 l 18.637678506868088 6.9556479990605125 a40.89331795383081,40.89331795383081 0 0,0 -0.25179713989675606,0.6573628769148745 l -18.515187087377825 -7.275434442808531" fill="#fff116" stroke="none" /><path d="M 119.54520255179757 107.68017299344265 l 15.134291394435058 5.9469312602105315 a37.26077388765185,37.26077388765185 0 0,0 -0.23970634014134193,0.5949314780569358 l -15.029682440036325 -6.206562106110281" fill="#ffc212" stroke="none" /><path d="M 119.26925614724726 108.34839909993367 l 15.453598662711014 6.695266707788463 a37.8416242659835,37.8416242659835 0 0,0 -0.2640965430680611,0.595467985167282 l -15.336061034911681 -6.960283029448433" fill="#ffc912" stroke="none" /><path d="M 119.12269723197855 108.67885076344098 l 22.9484215927999 10.415158690447463 a46.20130123918382,46.20130123918382 0 0,0 -0.3349052754111015,0.7213561686635271 l -22.765741700548965 -10.80863492638982" fill="#cdff1d" stroke="none" /><path d="M 118.81262510543309 109.33194174019688 l 16.513873564047366 8.19165348488029 a39.43396883217756,39.43396883217756 0 0,0 -0.30687388772196494,0.6054912936087085 l -16.370421006539132 -8.474698990191692" fill="#ffde14" stroke="none" /><line stroke="#e1ed5e" stroke-width="0.3" x1="174.80103733775053" x2="179.2010983576182" y1="140.37084112569926" y2="142.7455964860345" /><path d="M 175.68104954172406 140.8457921977663 a86.0,86.0 0 0,1 -30.038265399797805,32.042727171017184" fill="none" id="id101" stroke="none" /><text fill="#e1ed5e" style="font-size:6.75px; font-family:Arial;" text-anchor="middle"><textPath startOffset="22.206326154141568" xlink:href="#id101">May</textPath></text><path d="M 118.30583269289576 110.29060199501025 l 11.457057887705737 6.440571414264475 a34.14325437570471,34.14325437570471 0 0,0 -0.29240934020628684,0.5098403319062971 l -11.34449655134707 -6.636831592029087" fill="#ff980e" stroke="none" /><path d="M 117.94076556474637 110.91462005526583 l 8.032489432296098 4.886724032765055 a30.402178378033042,30.402178378033042 0 0,0 -0.27584238153035207,0.4447457491532909 l -7.947182411097783 -5.024266113283619" fill="#ff6509" stroke="none" /><path d="M 117.55443506779139 111.5257021239791 l 8.752436299266547 5.746580465556401 a31.470354732282622,31.470354732282622 0 0,0 -0.30121159870532505,0.4502704711380726 l -8.652221595150502 -5.896387850900281" fill="#ff740a" stroke="none" /><path d="M 117.35343817320211 111.8261652097733 l 12.850272808206286 8.757310666838485 a36.55056273453951,36.55056273453951 0 0,0 -0.3587857068957812,0.5168575702858577 l -12.697626194148368 -8.977209499311362" fill="#ffb911" stroke="none" /><path d="M 116.93607887273984 112.41649034213515 l 3.5769008794233885 2.6223635091603903 a25.43520126661641,25.43520126661641 0 0,0 -0.2619083668213582,0.3508690578108158 l -3.5312312459069384 -2.683545446480521" fill="#ff1e03" stroke="none" /><path d="M 116.71984013943494 112.70617746262583 l 13.141426618384504 9.98677602972055 a37.50553813222052,37.50553813222052 0 0,0 -0.3950461595911885,0.5106504140298277 l -12.967573641575246 -10.211504437863631" fill="#ffc512" stroke="none" /><path d="M 115.80600337817218 113.82643327865902 l 12.778001405768943 11.177663299468833 a37.976969009871155,37.976969009871155 0 0,0 -0.43463944850961145,0.48832202798170676 l -12.583703107610994 -11.395959497191406" fill="#ffcb12" stroke="none" /><path d="M 115.32070863581623 114.36230785411682 l 9.969846595792744 9.34617382725687 a34.66560669538464,34.66560669538464 0 0,0 -0.4118496077605701,0.4318226671839245 l -9.80749043665321 -9.5164036110233" fill="#ff9f0e" stroke="none" /><path d="M 114.55890576462653 115.13401014063108 l 15.520885402682552 16.13398979794799 a43.387574912962194,43.387574912962194 0 0,0 -0.5426838648723591,0.513141466855781 l -15.240865703419386 -16.39876590154969" fill="#efff19" stroke="none" /><path d="M 113.75828350139079 115.86535959552629 l 4.042553940089773 4.661669599798003 a27.17036512827371,27.17036512827371 0 0,0 -0.3559764505140572,0.30337085387224566 l -3.9617120129986687 -4.7305648438931955" fill="#ff3705" stroke="none" /><path d="M 112.92097659922987 116.55440617244103 l 9.554705709546456 12.241526633784082 a36.52892061676164,36.52892061676164 0 0,0 -0.4990046620995544,0.3826154962475519 l -9.342572318953408 -12.404181471859005" fill="#ffb811" stroke="none" /><path d="M 112.34349029814194 116.9893568818739 l 9.995873576700134 13.758139670285585 a38.00599587640953,38.00599587640953 0 0,0 -0.5325774268721574,0.3799798532655772 l -9.757568821979092 -13.928163785395382" fill="#ffcc13" stroke="none" /><line stroke="#e1ed5e" stroke-width="0.3" x1="143.8653032363475" x2="146.44561519142675" y1="172.8068346515853" y2="177.08958963109032" /><path d="M 144.38136562736335 173.6633856474863 a86.0,86.0 0 0,1 -40.68145358897372,12.25698825130547" fill="none" id="id102" stroke="none" /><text fill="#e1ed5e" style="font-size:6.75px; font-family:Arial;" text-anchor="middle"><textPath startOffset="21.466115282336833" xlink:href="#id102">June</textPath></text><path d="M 110.5260780823613 118.17145234162733 l 8.358499015478788 14.4295021677475 a37.67558210680484,37.67558210680484 0 0,0 -0.5639697948683671,0.32023676823377173 l -8.108880453689222 -14.571242101775901" fill="#ffc712" stroke="none" /><path d="M 109.57404056367764 118.69057910512821 l 5.017999128424642 9.796209764883042 a32.006636225952974,32.006636225952974 0 0,0 -0.49251521069695725,0.24695735109150985 l -4.848630010044925 -9.881134956883853" fill="#ff7b0b" stroke="none" /><path d="M 109.2508944713604 118.85261126421891 l 7.015495222053334 14.297039562695065 a36.925530241342706,36.925530241342706 0 0,0 -0.5730267872870427,0.27508768067829686 l -6.768355766766059 -14.415681519872923" fill="#ffbe11" stroke="none" /><path d="M 106.91757812671514 119.82793768551818 l 5.29979492881977 15.190866177403562 a37.08882349668015,37.08882349668015 0 0,0 -0.6046012786982174,0.2051135800174831 l -5.037523917184325 -15.279842744319168" fill="#ffc011" stroke="none" /><path d="M 106.57524785965236 119.94407469862006 l 8.096013813858972 24.556869598099087 a46.85701614905012,46.85701614905012 0 0,0 -0.7681843091831932,0.24594835733952156 l -7.672108159584839 -24.692590802098316" fill="#c5ff1e" stroke="none" /><path d="M 105.53697534728816 120.25689768951611 l 4.374827582567413 16.00520666806739 a37.592340307043536,37.592340307043536 0 0,0 -0.6256610578282992,0.16524277191731823 l -4.098676081927616 -16.078140789288295" fill="#ffc612" stroke="none" /><path d="M 105.18746579009965 120.34920634021253 l 2.0746701076837466 8.1384421251897 a29.398719919176894,29.398719919176894 0 0,0 -0.49144400287530376,0.12078497913356408 l -1.9342728200652317 -8.172948362637294" fill="#ff5708" stroke="none" /><path d="M 104.13013068566511 120.58985236759428 l 3.4368307145726678 17.13355881717557 a38.4748574558491,38.4748574558491 0 0,0 -0.6504676391220834,0.1246636711637763 l -3.14139546087888 -17.190179686687813" fill="#ffd213" stroke="none" /><path d="M 103.7750983002368 120.6578951692458 l 3.275475580393405 17.923885893235404 a39.220714195428144,39.220714195428144 0 0,0 -0.6651665571572621,0.11564773211439343 l -2.966460051764093 -17.977612203870805" fill="#ffdb14" stroke="none" /><path d="M 101.62511606390274 120.93702456842531 l 0.38690102739872034 4.984601713149298 a25.99959464794228,25.99959464794228 0 0,0 -0.4464962873667049,0.030792998133326505 l -0.3010419792530851 -4.99052305579891" fill="#ff2603" stroke="none" /><path d="M 100.90346689309514 120.98055641714683 l 0.6711311827847016 15.585192718553882 a36.59963618610931,36.59963618610931 0 0,0 -0.6296525566739638,0.021686507171209058 l -0.4027582744360854 -15.594436024151186" fill="#ffb911" stroke="none" /><line stroke="#e1ed5e" stroke-width="0.3" x1="102.19456741930631" x2="102.32365962044197" y1="184.97166512339345" y2="189.96999836594603" /><path d="M 102.22038585953345 185.97133177190398 a86.0,86.0 0 0,1 -42.740103519485714,-10.115201625700543" fill="none" id="id103" stroke="none" /><text fill="#e1ed5e" style="font-size:6.75px; font-family:Arial;" text-anchor="middle"><textPath startOffset="22.20632615414155" xlink:href="#id103">July</textPath></text><path d="M 100.54218724476979 120.99299961872073 l 0.27695086056210005 10.723286772733106 a31.726862588354475,31.726862588354475 0 0,0 -0.5460650977460739,0.009401005872238813 l -0.09232607292335816 -10.726465255884504" fill="#ff770b" stroke="none" /><path d="M 98.01472825383883 120.90594882070398 l -1.8660962887610433 19.65096898335485 a40.73937428956911,40.73937428956911 0 0,0 -0.6975500490101532,-0.0723039146899707 l 2.2040789343767897 -19.61593570020912" fill="#ffef16" stroke="none" /><path d="M 97.2962882734958 120.8252237178851 l -1.0859129943699222 8.364198307173721 a29.434395079261417,29.434395079261417 0 0,0 -0.5018864435045021,-0.06955688787003238 l 1.2297280290612551 -8.344266853811085" fill="#ff5708" stroke="none" /><path d="M 96.58105272829116 120.7198165907248 l -2.7554267623606257 16.698688984680167 a37.924496756176,37.924496756176 0 0,0 -0.643183263148428,-0.11182565466751943 l 3.0424589969811033 -16.64878475149164" fill="#ffcb12" stroke="none" /><path d="M 95.86986931433489 120.58985236759428 l -4.083599960073515 20.35788373429823 a41.763410576615705,41.763410576615705 0 0,0 -0.7036310124684235,-0.1474527199389509 l 4.433422433971326 -20.28457503363274" fill="#fffb17" stroke="none" /><path d="M 95.16358092515715 120.4354850818985 l -6.264549858784634 26.469814381865255 a48.20102311207428,48.20102311207428 0 0,0 -0.8057528969290604,-0.19803445819457757 l 6.719256040456905 -26.358058665356648" fill="#b5ff1f" stroke="none" /><path d="M 93.76903079525671 120.05430185196036 l -2.070558705297522 6.664069090027137 a27.978325743954525,27.978325743954525 0 0,0 -0.45868287398743707,-0.1468557715230264 l 2.1849629243758995 -6.627440471844404" fill="#ff4306" stroke="none" /><path d="M 92.40401165467489 119.57807347666478 l -5.39149587072998 13.896164331432823 a35.90542219631112,35.90542219631112 0 0,0 -0.5742797415028459,-0.22851776092711626 l 5.629896688274684 -13.801299726099641" fill="#ffb010" stroke="none" /><path d="M 91.40352486487194 119.15986991738527 l -10.315032795085031 22.990200453182403 a46.19819871421741,46.19819871421741 0 0,0 -0.7227422293103273,-0.3317755092085584 l 10.709243020162777 -22.80923787363977" fill="#cdff1d" stroke="none" /><path d="M 91.07499286063937 119.00905698771935 l -3.1792709215932375 6.7714166705186845 a28.480631478603037,28.480631478603037 0 0,0 -0.44197509553477454,-0.21217490463901859 l 3.2953586851282544 -6.7156874893801035" fill="#ff4a06" stroke="none" /><path d="M 90.42595943632237 118.69057910512821 l -12.162217260051115 23.743254718927382 a47.67698771091955,47.67698771091955 0 0,0 -0.7272082335209524,-0.3804409777944946 l 12.569116396098563 -23.53038432218817" fill="#bbff1f" stroke="none" /><line stroke="#e1ed5e" stroke-width="0.3" x1="58.666819895761336" x2="56.23545636021788" y1="174.27360380694188" y2="178.64263932499728" /><path d="M 58.180547188652646 175.14741091055294 a86.0,86.0 0 0,1 -31.652253787137756,-30.449443065178592" fill="none" id="id104" stroke="none" /><text fill="#e1ed5e" style="font-size:6.75px; font-family:Arial;" text-anchor="middle"><textPath startOffset="22.20632615414155" xlink:href="#id104">August</textPath></text><path d="M 89.4739219176387 118.17145234162733 l -8.390968339345433 14.485554836803452 a37.74035987074165,37.74035987074165 0 0,0 -0.5593339309869494,-0.3304643454847456 l 8.639070141360765 -14.338971919024956" fill="#ffc812" stroke="none" /><path d="M 88.24862548938628 117.40417183066458 l -1.3614788021881676 2.016394847742179 a23.432996652445073,23.432996652445073 0 0,0 -0.3323503202659821,-0.22859358081095835 l 1.39598600707704 -1.9926604775661196" fill="#ff0000" stroke="none" /><path d="M 87.95078237400918 117.19931262002967 l -9.544898613922099 13.624593752312993 a37.63534323257618,37.63534323257618 0 0,0 -0.5273834771606907,-0.3762741080543666 l 9.778009418931676 -13.458275382414408" fill="#ffc712" stroke="none" /><path d="M 85.70375840098266 115.38237550388516 l -10.247761900113389 11.026319087443722 a36.05311717152103,36.05311717152103 0 0,0 -0.4509458066413181,-0.4263974067974448 l 10.436043541145523 -10.848287043900347" fill="#ffb210" stroke="none" /><path d="M 84.9287848128048 114.62390073753433 l -10.627444266149332 10.31202116826582 a35.80811778062535,35.80811778062535 0 0,0 -0.4254233711293662,-0.4460547038089158 l 10.803374188657656 -10.127559347874405" fill="#ffaf10" stroke="none" /><path d="M 84.67929136418377 114.36230785411682 l -3.269392085511984 3.064872307418207 a25.48133538909859,25.48133538909859 0 0,0 -0.2972259348869166,-0.3225800494846649 l 3.3216644283946297 -3.0081410031321982" fill="#ff1e03" stroke="none" /><path d="M 84.19399662182784 113.82643327865904 l -23.445420629548686 20.509077232782303 a52.14979931615446,52.14979931615446 0 0,0 -0.5852138492015465,-0.6807359174613478 l 23.79497698832101 -20.102464216159426" fill="#89ff25" stroke="none" /><path d="M 83.95833913139862 113.55231037782056 l -11.458246594517547 9.680151918586597 a35.99989187253324,35.99989187253324 0 0,0 -0.3958342398460997,-0.47680784140318677 l 11.623176834257183 -9.481482820069651" fill="#ffb110" stroke="none" /><path d="M 82.85270091963577 112.12312394758628 l -19.061444613054164 13.476422997061176 a44.34422085939582,44.34422085939582 0 0,0 -0.43528940288370643,-0.6270668502717396 l 19.290594923100002 -13.146314884602424" fill="#e3ff1b" stroke="none" /><path d="M 82.05923443525364 110.91462005526583 l -12.830919884519128 7.805944233186431 a36.01883052885826,36.01883052885826 0 0,0 -0.31768458328232946,-0.532457634764275 l 12.96338534349969 -7.5839245045360455" fill="#ffb210" stroke="none" /><line stroke="#e1ed5e" stroke-width="0.3" x1="26.63291911575756" x2="22.317208475507996" y1="142.92168965132927" y2="145.44649492493687" /><path d="M 25.769776987707644 143.4266507060508 a86.0,86.0 0 0,1 -11.730757126820373,-40.83630448921669" fill="none" id="id105" stroke="none" /><text fill="#e1ed5e" style="font-size:6.75px; font-family:Arial;" text-anchor="middle"><textPath startOffset="21.46611528233685" xlink:href="#id105">September</textPath></text><path d="M 80.87730276802145 108.67885076344099 l -12.131290509600317 5.505795475582905 a34.32223679594639,34.32223679594639 0 0,0 -0.2395347521147645,-0.5400876306910518 l 12.224266346446361 -5.296159508399157" fill="#ff9b0e" stroke="none" /><path d="M 79.86692584326677 105.97154293290107 l -15.585598943794102 4.6227452649956176 a37.256711482395055,37.256711482395055 0 0,0 -0.17707114911205044,-0.6164078996114402 l 15.662862729792257 -4.353779889879581" fill="#ffc212" stroke="none" /><path d="M 79.76711848015287 105.62410040840567 l -12.1061971510106 3.365139477263778 a33.56519690098712,33.56519690098712 0 0,0 -0.14994360424993797,-0.5579959318039479 l 12.162328831602311 -3.156252612284291" fill="#ff910d" stroke="none" /><path d="M 79.67330655649465 105.27499134158121 l -14.67988024391783 3.8095837573059654 a36.16614032572884,36.16614032572884 0 0,0 -0.1511894250579152,-0.6039265985085926 l 14.743280983270804 -3.556329319399981" fill="#ffb310" stroke="none" /><path d="M 79.58551787078972 104.9243191809786 l -7.591765672163577 1.8312625850762243 a28.809508862696894,28.809508862696894 0 0,0 -0.11213680715502379,-0.4830824303309337 l 7.622163045249155 -1.7003114973967164" fill="#ff4e07" stroke="none" /><path d="M 79.4281124754447 104.21870165774334 l -30.88676809081351 6.333986591726996 a52.52953899504198,52.52953899504198 0 0,0 -0.1740230261258292,-0.8873396610447486 l 30.991221049915005 -5.801383203614293" fill="#84ff25" stroke="none" /><path d="M 79.29508885075956 103.50808413554451 l -4.158003895644913 0.7045008499048449 a25.21726426059773,25.21726426059773 0 0,0 -0.06882901653453259,-0.4285983516629683 l 4.169514666540736 -0.6328232685486629" fill="#ff1a02" stroke="none" /><path d="M 79.23777060512086 103.15116336523772 l -11.755693370288947 1.7842067716754528 a32.890320450700564,32.890320450700564 0 0,0 -0.08013640277277406,-0.5604738143475633 l 11.78466382407832 -1.581587485347489" fill="#ff870c" stroke="none" /><path d="M 79.1416061653843 102.43462659150553 l -15.427508137656847 1.8007245356674595 a36.532244402880835,36.532244402880835 0 0,0 -0.06752845946290062,-0.6252296670571169 l 15.456218898620799 -1.5348985467255605" fill="#ffb811" stroke="none" /><path d="M 79.07016306316243 101.71520430193888 l -11.83579736755574 0.9699459495538654 a32.875474494557906,32.875474494557906 0 0,0 -0.041365865318528115,-0.5644043669382717 l 11.850739791538604 -0.7660684461188331" fill="#ff870c" stroke="none" /><path d="M 79.0235259727143 100.99374915477108 l -10.626900539723623 0.5034436872207338 a31.638819042891022,31.638819042891022 0 0,0 -0.021089332652727846,-0.5442219674237656 l 10.633992005227551 -0.3204444727829714" fill="#ff760a" stroke="none" /><line stroke="#e1ed5e" stroke-width="0.3" x1="15.007084014347285" x2="10.007500721073583" y1="101.09737516637583" y2="101.16192664675087" /><path d="M 14.007167355692545 101.11028546245083 a86.0,86.0 0 0,1 10.666146001902534,-42.60595125391555" fill="none" id="id106" stroke="none" /><text fill="#e1ed5e" style="font-size:6.75px; font-family:Arial;" text-anchor="middle"><textPath startOffset="22.20632615414155" xlink:href="#id106">October</textPath></text><path d="M 79.00175016825051 100.2711162175752 l -14.795140298146276 0.19102556204769666 a35.79637344781442,35.79637344781442 0 0,0 -0.0026518340570822504,-0.6161928436222158 l 14.796236429492861 0.06367675977819458" fill="#ffaf10" stroke="none" /><path d="M 79.03285615573316 98.82574320788736 l -27.379969045631853 -1.5334045904615858 a48.422874294606814,48.422874294606814 0 0,0 0.05377108621037257,-0.8318149040283449 l 27.349517368417068 2.004478558742943" fill="#b3ff20" stroke="none" /><path d="M 79.05617556472873 98.46500227214037 l -8.272607259726144 -0.6063091956485962 a29.294796062255042,29.294796062255042 0 0,0 0.04118780834003069,-0.5025955866412795 l 8.260944967566616 0.748618699497654" fill="#ff5507" stroke="none" /><path d="M 79.12142395522702 97.74499172005258 l -15.313954046589155 -1.6539965704432398 a36.403015717582136,36.403015717582136 0 0,0 0.0726494065870796,-0.6224157493931591 l 15.283214286998486 1.9173560581612605" fill="#ffb710" stroke="none" /><path d="M 81.10775173730289 90.83032412892265 l -13.43989101286883 -6.523281010124651 a35.93933952940508,35.93933952940508 0 0,0 0.27491881126031104,-0.5542195477275277 l 13.325612188655107 6.753660146351141" fill="#ffb010" stroke="none" /><line stroke="#e1ed5e" stroke-width="0.3" x1="26.266209847984243" x2="21.928928074336255" y1="57.711370442889674" y2="55.22380399835377" /><path d="M 25.398753493254645 57.213857153982495 a86.0,86.0 0 0,1 29.58750427330803,-30.492523968695096" fill="none" id="id107" stroke="none" /><text fill="#e1ed5e" style="font-size:6.75px; font-family:Arial;" text-anchor="middle"><textPath startOffset="21.46611528233685" xlink:href="#id107">November</textPath></text><path d="M 82.15384107792192 88.93136811851018 l -4.124044063655776 -2.5578347588946477 a25.852860815311324,25.852860815311324 0 0,0 0.2378123460767738,-0.3761620207350171 l 4.07940412133304 2.6284444273438803" fill="#ff2403" stroke="none" /><path d="M 83.17141714833178 87.43820079747576 l -30.665719928034733 -22.89061530208598 a59.26704388390563,59.26704388390563 0 0,0 0.6172918309144637,-0.8122836913483491 l 30.26715215689616 23.415083769315356" fill="#3dff2e" stroke="none" /><path d="M 84.07557802195018 86.31012108654704 l -8.061440253239336 -6.930244695035227 a31.63085652662152,31.63085652662152 0 0,0 0.35849529596846635,-0.40982209547001536 l 7.940953093693026 7.0679823467081855" fill="#ff760a" stroke="none" /><path d="M 84.5562425177563 85.77008943001954 l -12.257564713861825 -11.294145863436677 a37.66750201737184,37.66750201737184 0 0,0 0.4434589237351473,-0.47305106056136653 l 12.061338468156222 11.503466340876093" fill="#ffc712" stroke="none" /><path d="M 85.05521093208273 85.24692304244772 l -14.72281432465672 -14.533949711588939 a41.68808729335105,41.68808729335105 0 0,0 0.5085235963836414,-0.5063398344525034 l 14.470454928105767 14.785225396691551" fill="#fffa17" stroke="none" /><path d="M 85.31137513191541 84.99185889309783 l -12.089219367746127 -12.3521916975124 a38.28368781983701,38.28368781983701 0 0,0 0.4749305796846835,-0.45688284136965546 l 11.874805544449016 12.558457625644369" fill="#ffcf13" stroke="none" /><path d="M 85.57189188830299 84.74124197986013 l -8.677244954458528 -9.176808214669597 a33.62966305997525,33.62966305997525 0 0,0 0.424041411853181,-0.3941002786149879 l 8.51799565881049 9.324813079359233" fill="#ff920d" stroke="none" /><path d="M 86.93701828274178 83.55741782278169 l -13.81912065482894 -17.394346245139744 a43.21556609606262,43.21556609606262 0 0,0 0.5864299737016152,-0.45771789627221776 l 13.517658125967898 17.62964253063518" fill="#f1ff19" stroke="none" /><line stroke="#e1ed5e" stroke-width="0.3" x1="56.762969772571076" x2="54.21961505331055" y1="26.818313649435495" y2="22.513508569990535" /><path d="M 56.25429882871897 25.957352633546506 a86.0,86.0 0 0,1 42.265352541879196,-11.944610805530505" fill="none" id="id108" stroke="none" /><text fill="#e1ed5e" style="font-size:6.75px; font-family:Arial;" text-anchor="middle"><textPath startOffset="22.20632615414155" xlink:href="#id108">December</textPath></text></svg>