<?xml version="1.0" encoding="utf-8" ?>
<svg baseProfile="full" height="200mm" version="1.1" viewBox="0,0,200,200" width="200mm" xmlns="http://www.w3.org/2000/svg" xmlns:ev="http://www.w3.org/2001/xml-events" xmlns:xlink="http://www.w3.org/1999/xlink"><defs /><rect fill="#1a1a1a" height="200" width="200" x="0" y="0" /><text alignment-baseline="middle" fill="#e1ed5e" style="dominant-baseline: central; font-size:9.0px; font-family:Arial;" text-anchor="middle" x="100.0" y="100.0">2021</text><line stroke="#e1ed5e" stroke-width="0.3" x1="100.0" x2="100.0" y1="15.0" y2="10.0" /><path d="M 100.0 14.0 a86.0,86.0 0 0,1 42.46469731375804,11.215312516191453" fill="none" id="id49" stroke="none" /><text fill="#e1ed5e" style="font-size:6.75px; font-family:Arial;" text-anchor="middle"><textPath startOffset="22.20632615414155" xlink:href="#id49">January</textPath></text><line stroke="#e1ed5e" stroke-width="0.3" x1="143.23703022742887" x2="145.7803849466894" y1="26.81831364943548" y2="22.513508569990506" /><path d="M 143.74570117128098 25.957352633546492 a86.0,86.0 0 0,1 28.547481713284135,27.462654790039103" fill="none" id="id50" stroke="none" /><text fill="#e1ed5e" style="font-size:6.75px; font-family:Arial;" text-anchor="middle"><textPath startOffset="19.985693538727396" xlink:href="#id50">February</textPath></text><line stroke="#e1ed5e" stroke-width="0.3" x1="172.23445277983987" x2="176.4835382374775" y1="55.19839476539836" y2="52.563006222186495" /><path d="M 173.08426987136738 54.67131705675599 a86.0,86.0 0 0,1 12.851231095245387,41.99856678651699" fill="none" id="id51" stroke="none" /><text fill="#e1ed5e" style="font-size:6.75px; font-family:Arial;" text-anchor="middle"><textPath startOffset="22.20632615414155" xlink:href="#id51">March</textPath></text><line stroke="#e1ed5e" stroke-width="0.3" x1="184.98032266829074" x2="189.97916517819016" y1="98.17113171792111" y2="98.06355123074" /><path d="M 185.9800911702706 98.14961562048488 a86.0,86.0 0 0,1 -9.607161424134198,41.387399972396054" fill="none" id="id52" stroke="none" /><text fill="#e1ed5e" style="font-size:6.75px; font-family:Arial;" text-anchor="middle"><textPath startOffset="21.466115282336823" xlink:href="#id52">April</textPath></text><path d="M 120.9904718944345 100.63252640178507 l 45.519091476344734 1.3716712653654934 a66.53975374211052,66.53975374211052 0 0,0 -0.04435307776170087,1.1445558585588214 l -45.48873626573183 -2.155004370938321" fill="#36ff2e" stroke="none" /><path d="M 120.8583938346157 102.4346265915055 l 44.533073676224426 5.197974792942994 a65.83540557416765,65.83540557416765 0 0,0 -0.14107113756948508,1.124475767559172 l -44.437001029408094 -5.963768314789561" fill="#40ff2d" stroke="none" /><line stroke="#e1ed5e" stroke-width="0.3" x1="174.80103733775053" x2="179.2010983576182" y1="140.37084112569926" y2="142.7455964860345" /><path d="M 175.68104954172406 140.8457921977663 a86.0,86.0 0 0,1 -30.038265399797805,32.042727171017184" fill="none" id="id53" stroke="none" /><text fill="#e1ed5e" style="font-size:6.75px; font-family:Arial;" text-anchor="middle"><textPath startOffset="22.206326154141568" xlink:href="#id53">May</textPath></text><path d="M 115.32070863581623 114.36230785411682 l 32.49068916707599 30.458204728145905 a65.53478548071382,65.53478548071382 0 0,0 -0.7785952206772885,0.8163539760974655 l -31.961587395019738 -31.012965820825876" fill="#44ff2d" stroke="none" /><line stroke="#e1ed5e" stroke-width="0.3" x1="143.8653032363475" x2="146.44561519142675" y1="172.8068346515853" y2="177.08958963109032" /><path d="M 144.38136562736335 173.6633856474863 a86.0,86.0 0 0,1 -40.68145358897372,12.25698825130547" fill="none" id="id54" stroke="none" /><text fill="#e1ed5e" style="font-size:6.75px; font-family:Arial;" text-anchor="middle"><textPath startOffset="21.466115282336833" xlink:href="#id54">June</textPath></text><path d="M 109.89434966115114 118.52300852407294 l 26.333726811036726 49.29882841179996 a76.89131999277177,76.89131999277177 0 0,0 -1.1728090147824357,0.6135582461569753 l -25.481226893727797 -49.74481607690165" fill="#41ffcb" stroke="none" /><path d="M 106.91757812671514 119.82793768551818 l 12.996693436291318 37.252579277328245 a60.45464108429531,60.45464108429531 0 0,0 -0.9854977822652812,0.3343343544607654 l -12.35352592108881 -37.47077661868713" fill="#8fff24" stroke="none" /><path d="M 104.48393922423573 120.51570834832081 l 9.456953934927922 43.26912098715065 a65.29052730243826,65.29052730243826 0 0,0 -1.100016478446713,0.2305191483183939 l -8.71074599505183 -43.42549611619558" fill="#48ff2c" stroke="none" /><path d="M 103.41894727170886 120.7198165907248 l 8.269584222536569 50.11608976551073 a71.7937838381662,71.7937838381662 0 0,0 -1.2210554668016873,0.1907037516404244 l -7.405692892126365 -50.251011824498256" fill="#38ff7e" stroke="none" /><path d="M 102.34483914955558 120.86867818915974 l 5.667769652999969 50.442206648229586 a71.75962789838165,71.75962789838165 0 0,0 -1.2286868129509165,0.12735841195964107 l -4.79865024344345 -50.53229442864499" fill="#38ff7d" stroke="none" /><path d="M 101.26447882468166 120.96189622390904 l 2.959787193554791 49.065868708216584 a70.15505886806645,70.15505886806645 0 0,0 -1.2060387291679389,0.06233842643272484 l -2.1147603959733723 -49.10954694141151" fill="#35ff63" stroke="none" /><line stroke="#e1ed5e" stroke-width="0.3" x1="102.19456741930631" x2="102.32365962044197" y1="184.97166512339345" y2="189.96999836594603" /><path d="M 102.22038585953345 185.97133177190398 a86.0,86.0 0 0,1 -42.740103519485714,-10.115201625700543" fill="none" id="id55" stroke="none" /><text fill="#e1ed5e" style="font-size:6.75px; font-family:Arial;" text-anchor="middle"><textPath startOffset="22.20632615414155" xlink:href="#id55">July</textPath></text><path d="M 96.22490169976321 120.6578951692458 l -11.325294900710388 61.97368550773742 a84.0,84.0 0 0,0 -1.4201295417132198,-0.2721712066061275 l 12.390392056995301 -61.76955710278283" fill="#4dd2ff" stroke="none" /><path d="M 94.11515582081647 120.15858648285463 l -13.790769976596186 47.24040616432081 a70.21220693199388,70.21220693199388 0 0,0 -1.1572477104258632,-0.34866924210359035 l 14.601892661462294 -46.99602155311149" fill="#35ff64" stroke="none" /><line stroke="#e1ed5e" stroke-width="0.3" x1="58.666819895761336" x2="56.23545636021788" y1="174.27360380694188" y2="178.64263932499728" /><path d="M 58.180547188652646 175.14741091055294 a86.0,86.0 0 0,1 -31.652253787137756,-30.449443065178592" fill="none" id="id56" stroke="none" /><text fill="#e1ed5e" style="font-size:6.75px; font-family:Arial;" text-anchor="middle"><textPath startOffset="22.20632615414155" xlink:href="#id56">August</textPath></text><path d="M 89.7882731507175 118.34994917583269 l -9.227895920086466 16.582055477263207 a39.976791798483305,39.976791798483305 0 0,0 -0.5984168474470188,-0.33979670370077836 l 9.511961534454693 -16.420755607767795" fill="#ff0000" stroke="none" /><path d="M 89.4739219176387 118.17145234162733 l -22.507227136888034 38.85483292637659 a65.90293214399375,65.90293214399375 0 0,0 -0.9767195179355831,-0.5770631072697961 l 23.172714525852 -38.46165124681304" fill="#3fff2d" stroke="none" /><path d="M 88.8546689885994 117.79835938074946 l -23.93613601632737 38.224432326802486 a66.10039727206876,66.10039727206876 0 0,0 -0.9591425686060595,-0.6121701675443689 l 24.590560386980354 -37.80674773043431" fill="#3cff2e" stroke="none" /><path d="M 88.24862548938628 117.40417183066458 l -15.825426460460333 23.437976652231928 a49.28043267359973,49.28043267359973 0 0,0 -0.6989446473636596,-0.48074050177428185 l 16.226527992446883 -23.162095361092547" fill="#ffb410" stroke="none" /><path d="M 87.36589467227662 116.77436683061367 l -26.072985447677706 34.617237305192575 a64.33767055113634,64.33767055113634 0 0,0 -0.8788871122272207,-0.6738931599867615 l 26.66500128839841 -34.163304803378445" fill="#55ff2b" stroke="none" /><path d="M 85.70375840098266 115.38237550388516 l -30.080778198320527 32.36611682104291 a65.18618262635903,65.18618262635903 0 0,0 -0.815336869942877,-0.7709519012924646 l 30.63345090265422 -31.843530283004515" fill="#49ff2c" stroke="none" /><path d="M 84.67929136418377 114.36230785411682 l -31.35933809169901 29.397626342256867 a63.98404960108388,63.98404960108388 0 0,0 -0.7463391800364257,-0.8100037761512718 l 31.860723679731166 -28.85347131130425" fill="#5aff2a" stroke="none" /><line stroke="#e1ed5e" stroke-width="0.3" x1="26.63291911575756" x2="22.317208475507996" y1="142.92168965132927" y2="145.44649492493687" /><path d="M 25.769776987707644 143.4266507060508 a86.0,86.0 0 0,1 -11.730757126820373,-40.83630448921669" fill="none" id="id57" stroke="none" /><text fill="#e1ed5e" style="font-size:6.75px; font-family:Arial;" text-anchor="middle"><textPath startOffset="21.46611528233685" xlink:href="#id57">September</textPath></text><line stroke="#e1ed5e" stroke-width="0.3" x1="15.007084014347285" x2="10.007500721073583" y1="101.09737516637583" y2="101.16192664675087" /><path d="M 14.007167355692545 101.11028546245083 a86.0,86.0 0 0,1 10.666146001902534,-42.60595125391555" fill="none" id="id58" stroke="none" /><text fill="#e1ed5e" style="font-size:6.75px; font-family:Arial;" text-anchor="middle"><textPath startOffset="22.20632615414155" xlink:href="#id58">October</textPath></text><path d="M 80.2630227832202 92.82701384747504 l -48.5566951431933 -17.6469019571239 a72.66396995889258,72.66396995889258 0 0,0 0.4373520182885523,-1.171885971270091 l 48.24573853640312 18.480111065423333" fill="#39ff8b" stroke="none" /><line stroke="#e1ed5e" stroke-width="0.3" x1="26.266209847984243" x2="21.928928074336255" y1="57.711370442889674" y2="55.22380399835377" /><path d="M 25.398753493254645 57.213857153982495 a86.0,86.0 0 0,1 29.58750427330803,-30.492523968695096" fill="none" id="id59" stroke="none" /><text fill="#e1ed5e" style="font-size:6.75px; font-family:Arial;" text-anchor="middle"><textPath startOffset="21.46611528233685" xlink:href="#id59">November</textPath></text><path d="M 82.15384107792192 88.93136811851018 l -50.1109019362349 -31.080028436563577 a79.966691110156,79.966691110156 0 0,0 0.7355884734288306,-1.1635243130104238 l 49.56848586656011 31.938000397288214" fill="#46fff7" stroke="none" /><path d="M 83.84228863543731 86.58626213691792 l -41.39638450259244 -34.36626869167724 a74.80242628055942,74.80242628055942 0 0,0 0.8309815303174439,-0.9836200268287763 l 40.79869235878787 35.073747668135134" fill="#3dffac" stroke="none" /><path d="M 85.05521093208273 85.24692304244772 l -37.47966643861841 -36.99887638423428 a73.66537999526774,73.66537999526774 0 0,0 0.8985920534218368,-0.8947332135728294 l 36.837238585029255 37.638545448457215" fill="#3bff9b" stroke="none" /><path d="M 88.70189139769569 82.29822771554957 l -22.787439999638465 -35.703150679300954 a63.355429287943615,63.355429287943615 0 0,0 0.9243281012886015,-0.5788141722289019 l 22.169492745977625 36.090109192852786" fill="#63ff29" stroke="none" /><line stroke="#e1ed5e" stroke-width="0.3" x1="56.762969772571076" x2="54.21961505331055" y1="26.818313649435495" y2="22.513508569990535" /><path d="M 56.25429882871897 25.957352633546506 a86.0,86.0 0 0,1 42.265352541879196,-11.944610805530505" fill="none" id="id60" stroke="none" /><text fill="#e1ed5e" style="font-size:6.75px; font-family:Arial;" text-anchor="middle"><textPath startOffset="22.20632615414155" xlink:href="#id60">December</textPath></text><path d="M 97.47563105711357 79.15227682838746 l -5.165186551834613 -42.65714790455995 a63.96872606287923,63.96872606287923 0 0,0 1.094271254088187,-0.122954125487076 l 4.430148594236708 42.73973798351763" fill="#5aff2a" stroke="none" /></svg>