<?xml version="1.0" encoding="utf-8" ?>
<svg baseProfile="full" height="200mm" version="1.1" viewBox="0,0,200,200" width="200mm" xmlns="http://www.w3.org/2000/svg" xmlns:ev="http://www.w3.org/2001/xml-events" xmlns:xlink="http://www.w3.org/1999/xlink"><defs /><rect fill="#1a1a1a" height="200" width="200" x="0" y="0" /><text alignment-baseline="middle" fill="#e1ed5e" style="dominant-baseline: central; font-size:9.0px; font-family:Arial;" text-anchor="middle" x="100.0" y="100.0">2022</text><line stroke="#e1ed5e" stroke-width="0.3" x1="100.0" x2="100.0" y1="15.0" y2="10.0" /><path d="M 100.0 14.0 a86.0,86.0 0 0,1 42.46469731375804,11.215312516191453" fill="none" id="id61" stroke="none" /><text fill="#e1ed5e" style="font-size:6.75px; font-family:Arial;" text-anchor="middle"><textPath startOffset="22.20632615414155" xlink:href="#id61">January</textPath></text><line stroke="#e1ed5e" stroke-width="0.3" x1="143.23703022742887" x2="145.7803849466894" y1="26.81831364943548" y2="22.513508569990506" /><path d="M 143.74570117128098 25.957352633546492 a86.0,86.0 0 0,1 28.547481713284135,27.462654790039103" fill="none" id="id62" stroke="none" /><text fill="#e1ed5e" style="font-size:6.75px; font-family:Arial;" text-anchor="middle"><textPath startOffset="19.985693538727396" xlink:href="#id62">February</textPath></text><line stroke="#e1ed5e" stroke-width="0.3" x1="172.23445277983987" x2="176.4835382374775" y1="55.19839476539836" y2="52.563006222186495" /><path d="M 173.08426987136738 54.67131705675599 a86.0,86.0 0 0,1 12.851231095245387,41.99856678651699" fill="none" id="id63" stroke="none" /><text fill="#e1ed5e" style="font-size:6.75px; font-family:Arial;" text-anchor="middle"><textPath startOffset="22.20632615414155" xlink:href="#id63">March</textPath></text><line stroke="#e1ed5e" stroke-width="0.3" x1="184.98032266829074" x2="189.97916517819016" y1="98.17113171792111" y2="98.06355123074" /><path d="M 185.9800911702706 98.14961562048488 a86.0,86.0 0 0,1 -9.607161424134198,41.387399972396054" fill="none" id="id64" stroke="none" /><text fill="#e1ed5e" style="font-size:6.75px; font-family:Arial;" text-anchor="middle"><textPath startOffset="21.466115282336823" xlink:href="#id64">April</textPath></text><path d="M 118.64920377521936 109.65438752849418 l 17.657045582117615 9.14076347240967 a40.88277685705692,40.88277685705692 0 0,0 -0.328906790800055,0.6221676964333082 l -17.497086283092667 -9.443346183929114" fill="#ffa70f" stroke="none" /><line stroke="#e1ed5e" stroke-width="0.3" x1="174.80103733775053" x2="179.2010983576182" y1="140.37084112569926" y2="142.7455964860345" /><path d="M 175.68104954172406 140.8457921977663 a86.0,86.0 0 0,1 -30.038265399797805,32.042727171017184" fill="none" id="id65" stroke="none" /><text fill="#e1ed5e" style="font-size:6.75px; font-family:Arial;" text-anchor="middle"><textPath startOffset="22.206326154141568" xlink:href="#id65">May</textPath></text><path d="M 118.30583269289576 110.29060199501023 l 14.215273746879665 7.991099166771437 a37.307411615333116,37.307411615333116 0 0,0 -0.31950778608281444,0.5570887564268328 l -14.07561396464447 -8.234607769056584" fill="#ff700a" stroke="none" /><path d="M 117.94076556474637 110.91462005526583 l 14.241210230492626 8.663922296517066 a37.66960162658884,37.66960162658884 0 0,0 -0.3417805294993522,0.5510590388427025 l -14.08996506132531 -8.907777666725043" fill="#ff750a" stroke="none" /><path d="M 117.55443506779139 111.5257021239791 l 14.060166325595961 9.23147274501324 a37.8198800871274,37.8198800871274 0 0,0 -0.3619846881548341,0.5411179940640313 l -13.899178532030406 -9.472127653283078" fill="#ff780b" stroke="none" /><path d="M 111.45004920935366 117.60387380957326 l 9.491138591372046 14.592147423715375 a38.40725360865622,38.40725360865622 0 0,0 -0.5573042432360119,0.355697935970873 l -9.238552546089103 -14.753359788510057" fill="#ff810b" stroke="none" /><line stroke="#e1ed5e" stroke-width="0.3" x1="143.8653032363475" x2="146.44561519142675" y1="172.8068346515853" y2="177.08958963109032" /><path d="M 144.38136562736335 173.6633856474863 a86.0,86.0 0 0,1 -40.68145358897372,12.25698825130547" fill="none" id="id66" stroke="none" /><text fill="#e1ed5e" style="font-size:6.75px; font-family:Arial;" text-anchor="middle"><textPath startOffset="21.466115282336833" xlink:href="#id66">June</textPath></text><path d="M 109.57404056367764 118.69057910512821 l 5.177979019845133 10.108524800101144 a32.35754112315761,32.35754112315761 0 0,0 -0.4979149033782268,0.24966486909767968 l -5.003210208784146 -10.196157510108124" fill="#ff2003" stroke="none" /><path d="M 107.59598834532513 119.57807347666477 l 3.427837759516228 8.834987163085513 a30.4766592150109,30.4766592150109 0 0,0 -0.49071743106361776,0.18554734340681034 l -3.2752501076923357 -8.892682756598955" fill="#ff0000" stroke="none" /><path d="M 106.91757812671514 119.82793768551818 l 6.8401953924255015 19.606134620149913 a41.76508578720541,41.76508578720541 0 0,0 -0.6808310938777931,0.2309748721556995 l -6.501694565610482 -19.720972479203734" fill="#ffb410" stroke="none" /><path d="M 103.06178313531738 120.77559828337769 l 4.745696301731326 32.20171892724894 a53.54953663660681,53.54953663660681 0 0,0 -0.9130741916553446,0.1265437630124481 l -4.190693518889151 -32.27863725575399" fill="#a6ff21" stroke="none" /><line stroke="#e1ed5e" stroke-width="0.3" x1="102.19456741930631" x2="102.32365962044197" y1="184.97166512339345" y2="189.96999836594603" /><path d="M 102.22038585953345 185.97133177190398 a86.0,86.0 0 0,1 -42.740103519485714,-10.115201625700543" fill="none" id="id67" stroke="none" /><text fill="#e1ed5e" style="font-size:6.75px; font-family:Arial;" text-anchor="middle"><textPath startOffset="22.20632615414155" xlink:href="#id67">July</textPath></text><path d="M 99.81925306533755 120.99922214144158 l -0.21723242936022638 25.238115650368183 a46.239050527104325,46.239050527104325 0 0,0 -0.795840798170723,-0.013701121071190056 l 0.6516329174236173 -25.230637052017833" fill="#fff517" stroke="none" /><path d="M 97.65516085044442 120.86867818915974 l -2.368136638054275 21.07602195949341 a42.20864853717802,42.20864853717802 0 0,0 -0.7213107842883468,-0.08734069073336474 l 2.730574845394011 -21.032135740034697" fill="#ffbb11" stroke="none" /><path d="M 96.93821686468263 120.77559828337769 l -4.273283689445851 28.996183386984008 a50.309377415804846,50.309377415804846 0 0,0 -0.8556526351004338,-0.13363534421747067 l 4.771772188154801 -28.91832973541943" fill="#d1ff1d" stroke="none" /><path d="M 96.22490169976321 120.6578951692458 l -1.9648258349170102 10.751817011227358 a31.929872350785956,31.929872350785956 0 0,0 -0.539816130815277,-0.10345704624396479 l 2.149609580303982 -10.716402766634925" fill="#ff1802" stroke="none" /><path d="M 94.81253420990036 120.34920634021253 l -8.017480020778738 31.45068553179302 a53.45651870277096,53.45651870277096 0 0,0 -0.889693532411658,-0.23497614820860188 l 8.557663996001885 -31.308018034280835" fill="#a7ff21" stroke="none" /><path d="M 93.76903079525671 120.05430185196036 l -5.151368990970037 16.579621131348173 a38.36146420496193,38.36146420496193 0 0,0 -0.6289063474679206,-0.20135595225135794 l 5.435996683528899 -16.488492332437108" fill="#ff800b" stroke="none" /><line stroke="#e1ed5e" stroke-width="0.3" x1="58.666819895761336" x2="56.23545636021788" y1="174.27360380694188" y2="178.64263932499728" /><path d="M 58.180547188652646 175.14741091055294 a86.0,86.0 0 0,1 -31.652253787137756,-30.449443065178592" fill="none" id="id68" stroke="none" /><text fill="#e1ed5e" style="font-size:6.75px; font-family:Arial;" text-anchor="middle"><textPath startOffset="22.20632615414155" xlink:href="#id68">August</textPath></text><path d="M 88.54995079064634 117.60387380957326 l -11.428853991263157 17.571287229567382 a41.96112684131198,41.96112684131198 0 0,0 -0.6020928184128099,-0.39903428892610465 l 11.729621508415928 -17.37195491954996" fill="#ffb711" stroke="none" /><path d="M 87.65650970185807 116.9893568818739 l -13.736919760542756 18.907248001374256 a44.37064379714562,44.37064379714562 0 0,0 -0.6140369504597534,-0.45424985639989457 l 14.060341681421075 -18.667988196234592" fill="#ffda14" stroke="none" /><path d="M 87.36589467227662 116.77436683061367 l -15.343087768027475 20.37109679388527 a46.50278272744441,46.50278272744441 0 0,0 -0.6352529718863381,-0.48708489026607776 l 15.6914694684073 -20.103972561791824" fill="#fff917" stroke="none" /><path d="M 86.79598089348748 116.32954008644616 l -16.823752548267354 20.80609997798945 a47.75691398684506,47.75691398684506 0 0,0 -0.6347800601071627,-0.5223807738617186 l 17.179402736919204 -20.513424085270554" fill="#f3ff19" stroke="none" /><path d="M 85.44109423537348 115.13401014063109 l -15.759024729939606 16.38153608005583 a43.731070911442316,43.731070911442316 0 0,0 -0.5379963929823163,-0.5265427037639998 l 16.038671075297717 -16.10784327336926" fill="#ffd113" stroke="none" /><path d="M 85.18274418774928 114.88116024355367 l -14.2561255389859 14.317609906043861 a41.204728872344994,41.204728872344994 0 0,0 -0.49830129472271223,-0.5047765807314342 l 14.500467458764145 -14.070092831331763" fill="#ffac0f" stroke="none" /><path d="M 84.19399662182784 113.82643327865904 l -16.681251237573466 14.59206364332245 a43.162862275027095,43.162862275027095 0 0,0 -0.48436437159404244,-0.5634251912057989 l 16.92995811873829 -14.302761352955123" fill="#ffc912" stroke="none" /><path d="M 83.72743513129214 113.27417163493432 l -27.112345527655755 22.116607361131045 a55.98890683027166,55.98890683027166 0 0,0 -0.6027661408549368,-0.7520434402476049 l 27.48902958056555 -21.64663608730518" fill="#87ff25" stroke="none" /><path d="M 83.28015986056508 112.70617746262583 l -17.332488199391527 13.171756972179994 a42.76948159502699,42.76948159502699 0 0,0 -0.44040088210554806,-0.589988950863958 l 17.556650348192157 -12.871455141806731" fill="#ffc312" stroke="none" /><path d="M 82.85270091963577 112.12312394758628 l -34.38720901556139 24.31172368041254 a63.1134189088542,63.1134189088542 0 0,0 -0.6195306152270206,-0.8924800580112298 l 34.800600537950544 -23.7162023602143" fill="#32ff2f" stroke="none" /><path d="M 82.44556493220864 111.52570212397912 l -17.112144757250604 11.23530791009933 a41.47089744070445,41.47089744070445 0 0,0 -0.3866571442990121,-0.6001004744810939 l 17.30300676492666 -10.939085835696787" fill="#ffb010" stroke="none" /><path d="M 82.24976979558568 111.22182372390057 l -17.89576153146707 11.31382967986192 a42.17217567507083,42.17217567507083 0 0,0 -0.3826328899159946,-0.6169260515090631 l 18.08785906105102 -11.004107296987593" fill="#ffba11" stroke="none" /><path d="M 82.05923443525364 110.91462005526583 l -16.763524968472602 10.19842242280742 a40.62201797172313,40.62201797172313 0 0,0 -0.3582845045758688,-0.6005054381553568 l 16.936590348746705 -9.908354890765953" fill="#ffa30f" stroke="none" /><line stroke="#e1ed5e" stroke-width="0.3" x1="26.63291911575756" x2="22.317208475507996" y1="142.92168965132927" y2="145.44649492493687" /><path d="M 25.769776987707644 143.4266507060508 a86.0,86.0 0 0,1 -11.730757126820373,-40.83630448921669" fill="none" id="id69" stroke="none" /><text fill="#e1ed5e" style="font-size:6.75px; font-family:Arial;" text-anchor="middle"><textPath startOffset="21.46611528233685" xlink:href="#id69">September</textPath></text><path d="M 81.69416730710424 110.29060199501025 l -17.643609935150177 9.918334262297794 a41.240314377064415,41.240314377064415 0 0,0 -0.34253731947599136,-0.6218047315390824 l 17.811723664077686 -9.613159012360889" fill="#ffac0f" stroke="none" /><path d="M 81.51974371655577 109.97397251340807 l -39.20922923222023 21.161599094511864 a65.55532440934124,65.55532440934124 0 0,0 -0.5274003634029574,-0.9976427315420678 l 39.56768210384808 -20.483541347883673" fill="#32ff4d" stroke="none" /><path d="M 80.73074385275274 108.34839909993369 l -18.849851509656766 8.166692174029926 a41.542924889155174,41.542924889155174 0 0,0 -0.2786323909066291,-0.6586046654255773 l 18.987634881755703 -7.841012982938189" fill="#ffb110" stroke="none" /><path d="M 80.32549172779594 107.34259656027581 l -19.270754321556588 7.191914147876704 a41.569044733098835,41.569044733098835 0 0,0 -0.2444175484631554,-0.6725321202105521 l 19.391696131024965 -6.859134230660035" fill="#ffb110" stroke="none" /><path d="M 80.20201598880116 107.00284435728193 l -20.911805171322538 7.396819633844504 a43.18144576484995,43.18144576484995 0 0,0 -0.24183495024162138,-0.702885565833085 l 21.03603095250739 -7.035761364922122" fill="#ffc912" stroke="none" /><path d="M 79.50377843672027 104.57218783832718 l -21.90496818784027 4.886443525123601 a43.44337233203862,43.44337233203862 0 0,0 -0.1565325965978922,-0.731268178920659 l 21.985834823162605 -4.508661526786779" fill="#ffcd13" stroke="none" /><path d="M 79.35854240842038 103.8639653848113 l -22.076556419970935 4.132607856985806 a43.460026515206536,43.460026515206536 0 0,0 -0.1313187284963355,-0.7365051680666362 l 22.14442159080646 -3.751983938185956" fill="#ffcd13" stroke="none" /><line stroke="#e1ed5e" stroke-width="0.3" x1="15.007084014347285" x2="10.007500721073583" y1="101.09737516637583" y2="101.16192664675087" /><path d="M 14.007167355692545 101.11028546245083 a86.0,86.0 0 0,1 10.666146001902534,-42.60595125391555" fill="none" id="id70" stroke="none" /><text fill="#e1ed5e" style="font-size:6.75px; font-family:Arial;" text-anchor="middle"><textPath startOffset="22.20632615414155" xlink:href="#id70">October</textPath></text><path d="M 79.54389044137918 95.25157060432595 l -16.354462839833822 -3.7963236301889247 a37.789298016434046,37.789298016434046 0 0,0 0.15253776061726956,-0.6323674956285327 l 16.286692278955737 4.077276357476855" fill="#ff770b" stroke="none" /><path d="M 79.81627453868168 94.20196356495316 l -31.33386960974578 -9.0010596902187 a53.60108066103684,53.60108066103684 0 0,0 0.26237500001877695,-0.8845980664639883 l 31.174288712615297 9.539087143429228" fill="#a5ff21" stroke="none" /><path d="M 80.38941819471856 92.48833698450439 l -24.664928432092715 -9.447686586906862 a47.412449269325165,47.412449269325165 0 0,0 0.2984872194910423,-0.7596174160473137 l 24.498647662719982 9.870853007849938" fill="#f8ff18" stroke="none" /><path d="M 80.65960295795067 91.81776055985345 l -25.454468954769602 -10.768887492685755 a48.63872152613889,48.63872152613889 0 0,0 0.33284934022290746,-0.7682621684016407 l 25.265328904704017 11.205448805673994" fill="#e7ff1a" stroke="none" /><path d="M 81.10775173730289 90.83032412892265 l -21.1369460336384 -10.259178332714106 a44.49513199987122,44.49513199987122 0 0,0 0.3403665441950239,-0.6861581836491105 l 20.95721947648996 10.621496104862178" fill="#ffdc14" stroke="none" /><line stroke="#e1ed5e" stroke-width="0.3" x1="26.266209847984243" x2="21.928928074336255" y1="57.711370442889674" y2="55.22380399835377" /><path d="M 25.398753493254645 57.213857153982495 a86.0,86.0 0 0,1 29.58750427330803,-30.492523968695096" fill="none" id="id71" stroke="none" /><text fill="#e1ed5e" style="font-size:6.75px; font-family:Arial;" text-anchor="middle"><textPath startOffset="21.46611528233685" xlink:href="#id71">November</textPath></text><path d="M 84.31358615837235 86.03803664274999 l -47.05924152488297 -41.885890071750055 a84.0,84.0 0 0,0 0.9706254375358201,-1.071788850921776 l 46.331272446731106 42.68973170994139" fill="#4dd2ff" stroke="none" /><line stroke="#e1ed5e" stroke-width="0.3" x1="56.76296977257108" x2="54.21961505331056" y1="26.818313649435495" y2="22.513508569990535" /><path d="M 56.25429882871898 25.957352633546506 a86.0,86.0 0 0,1 42.26535254187918,-11.944610805530505" fill="none" id="id72" stroke="none" /><text fill="#e1ed5e" style="font-size:6.75px; font-family:Arial;" text-anchor="middle"><textPath startOffset="22.20632615414155" xlink:href="#id72">December</textPath></text></svg>