<?xml version="1.0" encoding="utf-8" ?>
<svg baseProfile="full" height="200mm" version="1.1" viewBox="0,0,200,200" width="200mm" xmlns="http://www.w3.org/2000/svg" xmlns:ev="http://www.w3.org/2001/xml-events" xmlns:xlink="http://www.w3.org/1999/xlink"><defs /><rect fill="#1a1a1a" height="200" width="200" x="0" y="0" /><text alignment-baseline="middle" fill="#e1ed5e" style="dominant-baseline: central; font-size:9.0px; font-family:Arial;" text-anchor="middle" x="100.0" y="100.0">2025</text><line stroke="#e1ed5e" stroke-width="0.3" x1="100.0" x2="100.0" y1="15.0" y2="10.0" /><path d="M 100.0 14.0 a86.0,86.0 0 0,1 42.46469731375804,11.215312516191453" fill="none" id="id97" stroke="none" /><text fill="#e1ed5e" style="font-size:6.75px; font-family:Arial;" text-anchor="middle"><textPath startOffset="22.20632615414155" xlink:href="#id97">January</textPath></text><path d="M 103.59715602781102 79.31037775812273 l 8.939843421291554 -51.41894926381843 a73.19031657110679,73.19031657110679 0 0,0 1.2393730314623228,0.22648749962668763 l -9.823611573856779 51.25744628284101" fill="#3cffa6" stroke="none" /><path d="M 104.66035177308747 79.52364482259891 l 9.093963142006265 -39.956472887142176 a61.978285606026716,61.978285606026716 0 0,0 1.0382139428034178,0.24571169691440403 l -9.780400771772207 39.7940152780869" fill="#54ff2b" stroke="none" /><path d="M 106.74666289553966 80.11325718540242 l 5.648226020235498 -16.648944813502013 a38.580950502708916,38.580950502708916 0 0,0 0.6270653669961258,0.21877079379370815 l -5.933973391294897 16.549253166536097" fill="#ff4806" stroke="none" /><path d="M 107.08798089147638 80.2323363322302 l 5.982616686313843 -16.684914409187435 a38.72506900571254,38.72506900571254 0 0,0 0.6255346591625854,0.23038969407372872 l -6.268933671249005 16.579461447307384" fill="#ff4a06" stroke="none" /><path d="M 108.09893153111575 80.62456947434976 l 18.07086157060343 -43.2317178574337 a67.8565626866575,67.8565626866575 0 0,0 1.0738018057759966,0.4597458938038144 l -18.812347134169745 42.914252435667095" fill="#34ff5a" stroke="none" /><path d="M 108.43124777332544 80.76684994638697 l 8.697502034942172 -19.84052256878096 a42.66316868443141,42.66316868443141 0 0,0 0.6700512340473129,0.30063245719236353 l -9.037735387456264 19.687869781072063" fill="#ff8d0d" stroke="none" /><line stroke="#e1ed5e" stroke-width="0.3" x1="143.23703022742887" x2="145.7803849466894" y1="26.81831364943548" y2="22.513508569990506" /><path d="M 143.74570117128098 25.957352633546492 a86.0,86.0 0 0,1 28.547481713284135,27.462654790039103" fill="none" id="id98" stroke="none" /><text fill="#e1ed5e" style="font-size:6.75px; font-family:Arial;" text-anchor="middle"><textPath startOffset="19.985693538727396" xlink:href="#id98">February</textPath></text><path d="M 112.19680574252982 82.90503203632743 l 10.475914602883831 -14.682977519433994 a39.03703455679782,39.03703455679782 0 0,0 0.5436458853235488,0.3949818558626813 l -10.727105804561168 14.500476428754638" fill="#ff5007" stroke="none" /><path d="M 112.48926042617603 83.11751280151076 l 32.65659325315797 -44.14388832722217 a75.91025368315525,75.91025368315525 0 0,0 1.0437798914375216,0.786153374404234 l -33.41161929835388 43.57521836331209" fill="#40ffca" stroke="none" /><path d="M 113.34407831869373 83.78471172551755 l 19.45316065177742 -23.638845657589677 a51.61405695701254,51.61405695701254 0 0,0 0.6811641367904219,0.5704553753300998 l -19.85718232552696 23.30048912486576" fill="#e3ff1b" stroke="none" /><path d="M 113.6212207817346 84.01681056812373 l 27.253791117261425 -31.97969647097254 a63.0174977436645,63.0174977436645 0 0,0 0.8195461632170629,0.7107023567998397 l -27.80023107912525 31.50582912075303" fill="#47ff2c" stroke="none" /><path d="M 113.89432698308785 84.25364557470407 l 20.790131614247485 -23.561326960633917 a52.42237579629566,52.42237579629566 0 0,0 0.671478242538926,0.6028597960701806 l -21.1926208443824 23.199968155794437" fill="#d7ff1c" stroke="none" /><path d="M 114.16331599549186 84.49514656593476 l 24.055112495822687 -26.333592620993393 a56.66660255077742,56.66660255077742 0 0,0 0.7145176003607945,0.6640662385941619 l -24.504837979978326 25.91562179632459" fill="#9bff22" stroke="none" /><path d="M 114.42810811169701 84.74124197986012 l 23.389951797335332 -24.7365497829152 a55.043894316665835,55.043894316665835 0 0,0 0.6828503241104109,0.6569014707726125 l -23.812285365058163 24.330265225380288" fill="#b2ff20" stroke="none" /><path d="M 114.94478906791727 85.2469230424477 l 44.8343672037518 -44.25923087265689 a84.0,84.0 0 0,0 1.0069429451875638,1.0377432177995427 l -45.58957441264248 43.480923459307235" fill="#4dd2ff" stroke="none" /><path d="M 115.19652480421416 85.50635884689758 l 9.833676155139338 -9.378839915352588 a34.589106846366576,34.589106846366576 0 0,0 0.4072170245846193,0.4343907294409297 l -9.993660501694421 9.208179769033604" fill="#ff0000" stroke="none" /><path d="M 115.68641384162765 86.03803664274999 l 25.61937546269803 -22.802967272008722 a55.29763425525141,55.29763425525141 0 0,0 0.6267279465545778,0.716458383792043 l -26.00809527283046 22.35859333201373" fill="#aeff20" stroke="none" /><path d="M 116.38621287248628 86.86637796730983 l 19.263106705559977 -15.439465153720866 a45.686926989456396,45.686926989456396 0 0,0 0.4865568948282578,0.617877845805611 l -19.526017680982196 15.105594913962216" fill="#ffbf11" stroke="none" /><path d="M 116.60985879189232 87.15038557335679 l 29.829880019527206 -23.076804050318124 a58.714196626153495,58.714196626153495 0 0,0 0.6115336882167596,0.8047066505200682 l -30.222689647968078 22.559912623917022" fill="#7fff26" stroke="none" /><path d="M 117.04232023915458 87.72973835380427 l 44.10065442989989 -31.751930548758217 a75.34199862646399,75.34199862646399 0 0,0 0.7487106815283916,1.058998162217648 l -44.64067773123217 30.988105886208775" fill="#40ffc2" stroke="none" /><path d="M 117.45458315368197 88.32363383020206 l 43.50333144353772 -29.101859555647916 a73.33983259700926,73.33983259700926 0 0,0 0.6928985499777701,1.0553320286532168 l -43.99782662887341 28.348709463017027" fill="#3cffa8" stroke="none" /><path d="M 117.65298651832404 88.62581576622439 l 46.57529801647799 -30.009427573772317 a76.40599361647821,76.40599361647821 0 0,0 0.7028347356243458,1.1117157656308696 l -47.08496034834829 29.20326416042724" fill="#41ffd0" stroke="none" /><line stroke="#e1ed5e" stroke-width="0.3" x1="172.23445277983987" x2="176.4835382374775" y1="55.19839476539836" y2="52.563006222186495" /><path d="M 173.08426987136738 54.67131705675599 a86.0,86.0 0 0,1 12.851231095245387,41.99856678651699" fill="none" id="id99" stroke="none" /><text fill="#e1ed5e" style="font-size:6.75px; font-family:Arial;" text-anchor="middle"><textPath startOffset="22.20632615414155" xlink:href="#id99">March</textPath></text><path d="M 118.03404312379186 89.2402003453031 l 35.43887138831329 -21.144185666483278 a62.267301738496634,62.267301738496634 0 0,0 0.5412520728190252,0.9251752418849065 l -35.79758313560264 20.531031012244476" fill="#51ff2b" stroke="none" /><line stroke="#e1ed5e" stroke-width="0.3" x1="184.98032266829074" x2="189.97916517819016" y1="98.17113171792111" y2="98.06355123074" /><path d="M 185.9800911702706 98.14961562048488 a86.0,86.0 0 0,1 -9.607161424134198,41.387399972396054" fill="none" id="id100" stroke="none" /><text fill="#e1ed5e" style="font-size:6.75px; font-family:Arial;" text-anchor="middle"><textPath startOffset="21.466115282336823" xlink:href="#id100">April</textPath></text><line stroke="#e1ed5e" stroke-width="0.3" x1="174.80103733775053" x2="179.2010983576182" y1="140.37084112569926" y2="142.7455964860345" /><path d="M 175.68104954172406 140.8457921977663 a86.0,86.0 0 0,1 -30.038265399797805,32.042727171017184" fill="none" id="id101" stroke="none" /><text fill="#e1ed5e" style="font-size:6.75px; font-family:Arial;" text-anchor="middle"><textPath startOffset="22.206326154141568" xlink:href="#id101">May</textPath></text><line stroke="#e1ed5e" stroke-width="0.3" x1="143.8653032363475" x2="146.44561519142675" y1="172.8068346515853" y2="177.08958963109032" /><path d="M 144.38136562736335 173.6633856474863 a86.0,86.0 0 0,1 -40.68145358897372,12.25698825130547" fill="none" id="id102" stroke="none" /><text fill="#e1ed5e" style="font-size:6.75px; font-family:Arial;" text-anchor="middle"><textPath startOffset="21.466115282336833" xlink:href="#id102">June</textPath></text><line stroke="#e1ed5e" stroke-width="0.3" x1="102.19456741930631" x2="102.32365962044197" y1="184.97166512339345" y2="189.96999836594603" /><path d="M 102.22038585953345 185.97133177190398 a86.0,86.0 0 0,1 -42.740103519485714,-10.115201625700543" fill="none" id="id103" stroke="none" /><text fill="#e1ed5e" style="font-size:6.75px; font-family:Arial;" text-anchor="middle"><textPath startOffset="22.20632615414155" xlink:href="#id103">July</textPath></text><line stroke="#e1ed5e" stroke-width="0.3" x1="58.666819895761336" x2="56.23545636021788" y1="174.27360380694188" y2="178.64263932499728" /><path d="M 58.180547188652646 175.14741091055294 a86.0,86.0 0 0,1 -31.652253787137756,-30.449443065178592" fill="none" id="id104" stroke="none" /><text fill="#e1ed5e" style="font-size:6.75px; font-family:Arial;" text-anchor="middle"><textPath startOffset="22.20632615414155" xlink:href="#id104">August</textPath></text><line stroke="#e1ed5e" stroke-width="0.3" x1="26.63291911575756" x2="22.317208475507996" y1="142.92168965132927" y2="145.44649492493687" /><path d="M 25.769776987707644 143.4266507060508 a86.0,86.0 0 0,1 -11.730757126820373,-40.83630448921669" fill="none" id="id105" stroke="none" /><text fill="#e1ed5e" style="font-size:6.75px; font-family:Arial;" text-anchor="middle"><textPath startOffset="21.46611528233685" xlink:href="#id105">September</textPath></text><line stroke="#e1ed5e" stroke-width="0.3" x1="15.007084014347285" x2="10.007500721073583" y1="101.09737516637583" y2="101.16192664675087" /><path d="M 14.007167355692545 101.11028546245083 a86.0,86.0 0 0,1 10.666146001902534,-42.60595125391555" fill="none" id="id106" stroke="none" /><text fill="#e1ed5e" style="font-size:6.75px; font-family:Arial;" text-anchor="middle"><textPath startOffset="22.20632615414155" xlink:href="#id106">October</textPath></text><line stroke="#e1ed5e" stroke-width="0.3" x1="26.266209847984243" x2="21.928928074336255" y1="57.711370442889674" y2="55.22380399835377" /><path d="M 25.398753493254645 57.213857153982495 a86.0,86.0 0 0,1 29.58750427330803,-30.492523968695096" fill="none" id="id107" stroke="none" /><text fill="#e1ed5e" style="font-size:6.75px; font-family:Arial;" text-anchor="middle"><textPath startOffset="21.46611528233685" xlink:href="#id107">November</textPath></text><line stroke="#e1ed5e" stroke-width="0.3" x1="56.762969772571076" x2="54.21961505331055" y1="26.818313649435495" y2="22.513508569990535" /><path d="M 56.25429882871897 25.957352633546506 a86.0,86.0 0 0,1 42.265352541879196,-11.944610805530505" fill="none" id="id108" stroke="none" /><text fill="#e1ed5e" style="font-size:6.75px; font-family:Arial;" text-anchor="middle"><textPath startOffset="22.20632615414155" xlink:href="#id108">December</textPath></text></svg>