<?xml version="1.0" encoding="utf-8" ?>
<svg baseProfile="full" height="200mm" version="1.1" viewBox="0,0,200,200" width="200mm" xmlns="http://www.w3.org/2000/svg" xmlns:ev="http://www.w3.org/2001/xml-events" xmlns:xlink="http://www.w3.org/1999/xlink"><defs /><rect fill="#1a1a1a" height="200" width="200" x="0" y="0" /><text alignment-baseline="middle" fill="#e1ed5e" style="dominant-baseline: central; font-size:9.0px; font-family:Arial;" text-anchor="middle" x="100.0" y="100.0">2024</text><line stroke="#e1ed5e" stroke-width="0.3" x1="100.0" x2="100.0" y1="15.0" y2="10.0" /><path d="M 100.0 14.0 a86.0,86.0 0 0,1 42.35913384403234,11.155469271406648" fill="none" id="id85" stroke="none" /><text fill="#e1ed5e" style="font-size:6.75px; font-family:Arial;" text-anchor="middle"><textPath startOffset="22.145653131862478" xlink:href="#id85">January</textPath></text><path d="M 101.08105385017728 79.02784411241856 l 0.38280747783379115 -7.426362802135731 a28.43622256485312,28.43622256485312 0 0,0 0.4872826330467006,0.02931371317456864 l -0.5102344630129542 7.418697111136471" fill="#ff4706" stroke="none" /><path d="M 102.15924093988457 79.11130261209362 l 1.5094313116297755 -14.602378694315863 a35.68018550348524,35.68018550348524 0 0,0 0.6087109281010697,0.0682073291432199 l -1.759878141331642 14.574315604665673" fill="#ffab0f" stroke="none" /><path d="M 102.87502721639298 79.19773525538626 l 2.7956191769560506 -20.227707728318716 a41.41998155055114,41.41998155055114 0 0,0 0.7034984545368852,0.10339004651714205 l -3.1424427371006174 20.17673660850269" fill="#fff617" stroke="none" /><path d="M 103.23170211078529 79.25015418208739 l 3.424613636324738 -21.9884761972668 a43.25356295148869,43.25356295148869 0 0,0 0.732679305474036,0.12056210089857819 l -3.801570444851845 21.926448097872555" fill="#f1ff19" stroke="none" /><path d="M 103.94208987418118 79.37332000966035 l 3.3115759813247325 -17.3275648731039 a38.641174561567915,38.641174561567915 0 0,0 0.6504662386060021,0.1301114650906784 l -3.6085387054616915 17.26816401135036" fill="#ffd213" stroke="none" /><path d="M 110.02825361518725 81.54914285379988 l 7.651721245424606 -14.078305260256188 a37.02334287901995,37.02334287901995 0 0,0 0.5558011436428808,0.3082935252463434 l -7.892266577223587 13.944878819576699" fill="#ffbd11" stroke="none" /><line stroke="#e1ed5e" stroke-width="0.3" x1="143.13028292997686" x2="145.6673583964461" y1="26.7553504044142" y2="22.446841604673864" /><path d="M 143.63769802327073 25.89364864446614 a86.0,86.0 0 0,1 29.32050498858742,28.57503671076993" fill="none" id="id86" stroke="none" /><text fill="#e1ed5e" style="font-size:6.75px; font-family:Arial;" text-anchor="middle"><textPath startOffset="20.669276256404974" xlink:href="#id86">February</textPath></text><path d="M 110.65571695917076 81.90426304109057 l 9.037218695744482 -15.347173070094128 a38.810307212345776,38.810307212345776 0 0,0 0.5711902222513732,0.3429833168338639 l -9.299341674553288 15.189775752724342" fill="#ffd513" stroke="none" /><path d="M 112.16784306229584 82.88440491214696 l 8.5861046436092 -12.077431448579347 a35.818419056908226,35.818419056908226 0 0,0 0.4980789782381026,0.3605707694888743 l -8.79216463222127 11.928259907717399" fill="#ffad10" stroke="none" /><path d="M 112.45986205192187 83.09580414077388 l 2.610676201717583 -3.541883662511936 a25.400064784634825,25.400064784634825 0 0,0 0.3487634648629691,0.26171860598363444 l -2.6710926554913184 3.4965460292642865" fill="#ff1b02" stroke="none" /><path d="M 112.7482090630111 83.31218511350987 l 10.732055846521463 -14.048605606717471 a38.678810542170226,38.678810542170226 0 0,0 0.5241716587447538,0.4075990522638543 l -10.971637449901444 13.862305502832827" fill="#ffd313" stroke="none" /><path d="M 113.86319453409587 84.22622945171908 l 5.869760247317764 -6.678709664420755 a29.89152676105848,29.89152676105848 0 0,0 0.3825189829686382,0.3420508332996532 l -5.983544257109777 6.576963301237715" fill="#ff5c08" stroke="none" /><path d="M 114.13192950727249 84.46653392183569 l 10.297361112367337 -11.31860369465131 a36.301844185426454,36.301844185426454 0 0,0 0.45735177227919477,0.4233179725561224 l -10.490142655960497 11.140167975962813" fill="#ffb410" stroke="none" /><path d="M 115.16444852881244 85.47280134310134 l 21.31831122424421 -20.42245991311634 a50.5219793096022,50.5219793096022 0 0,0 0.5945815454507409,0.6314249966815539 l -21.66574860343121 20.053493456490294" fill="#9cff22" stroke="none" /><path d="M 117.01052211995028 87.68569379921539 l 10.94208622007839 -7.921226593709339 a34.50833378313245,34.50833378313245 0 0,0 0.3432509477230882,0.48282544446638526 l -11.076452266331438 7.73222392253345" fill="#ff9c0e" stroke="none" /><path d="M 117.21940702142032 87.97951657250589 l 18.181281324428355 -12.691946393916682 a43.17305783747614,43.17305783747614 0 0,0 0.4190053466830098,0.6113413229370096 l -18.396476407926688 12.377970335909623" fill="#f2ff19" stroke="none" /><line stroke="#e1ed5e" stroke-width="0.3" x1="172.87174338648825" x2="177.1583165268699" y1="56.24261187166439" y2="53.66864786411523" /><path d="M 173.72905801456457 55.72781907015455 a86.0,86.0 0 0,1 12.242430191666344,42.057860355516425" fill="none" id="id87" stroke="none" /><text fill="#e1ed5e" style="font-size:6.75px; font-family:Arial;" text-anchor="middle"><textPath startOffset="22.145653131862474" xlink:href="#id87">March</textPath></text><path d="M 118.36410011445183 89.81374322990088 l 27.30380466493537 -15.144960187773611 a52.22286931513813,52.22286931513813 0 0,0 0.4281147528110155,0.787682925602736 l -27.559764767361724 14.674022428696272" fill="#89ff24" stroke="none" /><path d="M 119.0197475246899 91.09779779509293 l 16.056575428867884 -7.515288044732074 a38.72831545573963,38.72831545573963 0 0,0 0.27665947468357927,0.6045508812693707 l -16.183219368406515 7.238548181248019" fill="#ffd313" stroke="none" /><path d="M 119.16976305983485 91.42560881287824 l 21.416564096195312 -9.579356712530355 a44.461314812097434,44.461314812097434 0 0,0 0.30565273427828016,0.6993932719082209 l -21.577850712490562 9.210301370846285" fill="#e3ff1b" stroke="none" /><path d="M 119.58574465831526 92.42381321644754 l 13.873640645144835 -5.3666222412880025 a35.875434078752185,35.875434078752185 0 0,0 0.21725021045976328,0.5762819941222189 l -13.963721539419039 5.127671966971627" fill="#ffae10" stroke="none" /><path d="M 120.05942366710727 93.78553927170692 l 11.656518883187632 -3.6112193465936455 a33.203087217721674,33.203087217721674 0 0,0 0.16399744730774354,0.5458941648084192 l -11.716792650499004 3.410587578194503" fill="#ff8a0c" stroke="none" /><path d="M 120.16314734710363 94.1308016681162 l 5.634842836271915 -1.640220626559334 a26.86871174051645,26.86871174051645 0 0,0 0.12510776904767046,0.4439633366139661 l -5.662169097394167 1.5432493660423547" fill="#ff3004" stroke="none" /><path d="M 120.26092885502905 94.47779374421319 l 29.917899444444217 -8.154256532572663 a52.00923421767909,52.00923421767909 0 0,0 0.2273807045939764,0.8634015714725842 l -30.053469629842922 7.639474456727281" fill="#8bff24" stroke="none" /><path d="M 120.51834098615036 95.52812308129327 l 15.95420886963177 -3.477145566909612 a37.32872689309599,37.32872689309599 0 0,0 0.13108122729090096,0.627271124525413 l -16.01154780774704 3.202757991098794" fill="#ffc112" stroke="none" /><path d="M 120.86939407059847 97.66154086499901 l 14.753690731878166 -1.6531818197609256 a35.84602304797806,35.84602304797806 0 0,0 0.06327268159217157,0.6121057980546069 l -14.779895805952004 1.3996714994233872" fill="#ffae10" stroke="none" /><path d="M 120.98066250479742 99.09900007780936 l 15.14594709731737 -0.6504321373582045 a36.1599068414039,36.1599068414039 0 0,0 0.021309055491770756,0.620389900423945 l -15.154880839805989 0.3903359723701395" fill="#ffb210" stroke="none" /><line stroke="#e1ed5e" stroke-width="0.3" x1="184.99686870605535" x2="189.99668451229388" y1="99.2704041080226" y2="99.22748670261217" /><path d="M 185.99683186730306 99.26182062694052 a86.0,86.0 0 0,1 -10.086455211305974,41.156179273409016" fill="none" id="id88" stroke="none" /><text fill="#e1ed5e" style="font-size:6.75px; font-family:Arial;" text-anchor="middle"><textPath startOffset="21.40746469413373" xlink:href="#id88">April</textPath></text><path d="M 120.99303781780057 100.54070618675476 l 6.808004194610812 0.1753500383997334 a27.81026201770572,27.81026201770572 0 0,0 -0.016388604627087567,0.4771363421814298 l -6.803990902986879 -0.29219264514527393" fill="#ff3e05" stroke="none" /><line stroke="#e1ed5e" stroke-width="0.3" x1="174.33088141563837" x2="178.70328620479359" y1="141.23008692659167" y2="143.65538615756765" /><path d="M 175.20536237346943 141.71514677278685 a86.0,86.0 0 0,1 -30.301960400862466,31.631185727798858" fill="none" id="id89" stroke="none" /><text fill="#e1ed5e" style="font-size:6.75px; font-family:Arial;" text-anchor="middle"><textPath startOffset="22.145653131862474" xlink:href="#id89">May</textPath></text><line stroke="#e1ed5e" stroke-width="0.3" x1="143.1302829299769" x2="145.66735839644613" y1="173.24464959558577" y2="177.55315839532614" /><path d="M 143.63769802327073 174.10635135553383 a86.0,86.0 0 0,1 -40.68552437913181,11.842963189579606" fill="none" id="id90" stroke="none" /><text fill="#e1ed5e" style="font-size:6.75px; font-family:Arial;" text-anchor="middle"><textPath startOffset="21.407464694133747" xlink:href="#id90">June</textPath></text><line stroke="#e1ed5e" stroke-width="0.3" x1="101.45913802915013" x2="101.54496967792366" y1="184.9874750549273" y2="189.98673829345242" /><path d="M 101.47630435890484 185.9873277026323 a86.0,86.0 0 0,1 -42.54439059252881,-10.42667462771756" fill="none" id="id91" stroke="none" /><text fill="#e1ed5e" style="font-size:6.75px; font-family:Arial;" text-anchor="middle"><textPath startOffset="22.145653131862474" xlink:href="#id91">July</textPath></text><line stroke="#e1ed5e" stroke-width="0.3" x1="58.13341422392154" x2="55.67067388415222" y1="173.97424548756322" y2="178.32567169271397" /><path d="M 57.64086615596768 174.84453072859336 a86.0,86.0 0 0,1 -31.369924170532247,-30.572349798747897" fill="none" id="id92" stroke="none" /><text fill="#e1ed5e" style="font-size:6.75px; font-family:Arial;" text-anchor="middle"><textPath startOffset="22.145653131862474" xlink:href="#id92">August</textPath></text><path d="M 88.4268655584334 117.5232005979908 l -3.267951388086036 4.948094918195938 a26.92985240915572,26.92985240915572 0 0,0 -0.3835628007894415,-0.25807817023505764 l 3.3524104769724827 -4.891267073903759" fill="#ff3104" stroke="none" /><path d="M 83.64595745247003 113.17365903436017 l -14.402173285542997 11.601371322478919 a39.493631658191006,39.493631658191006 0 0,0 -0.4207643418006902,-0.5316220005785895 l 14.599204057985249 -11.352429377985649" fill="#ffdd14" stroke="none" /><path d="M 83.20337586046588 112.60449989151573 l -6.445907151759344 4.8371288968620485 a29.059003348675326,29.059003348675326 0 0,0 -0.2959839109137315,-0.40155902051047987 l 6.5279930822569066 -4.725763567082689" fill="#ff5007" stroke="none" /><path d="M 82.98947788004972 112.3143062007846 l -7.1069333157062236 5.144871649502292 a29.773722439406633,29.773722439406633 0 0,0 -0.2961562418167502,-0.4165808427775204 l 7.194204656052934 -5.022113580015268" fill="#ff5a08" stroke="none" /><path d="M 82.576782715395 111.72311816256416 l -7.2902919177588625 4.905233757659081 a29.786903576540396,29.786903576540396 0 0,0 -0.28180618004206553,-0.4266904741808352 l 7.373422536721654 -4.7793634051391845" fill="#ff5a08" stroke="none" /><path d="M 81.99639281039703 110.81064883170644 l -7.506126387750987 4.5072132273160666 a29.755392876700885,29.755392876700885 0 0,0 -0.259192553455522,-0.44016562067206155 l 7.58239265133628 -4.377696438350446" fill="#ff5a08" stroke="none" /><line stroke="#e1ed5e" stroke-width="0.3" x1="26.387840678322732" x2="22.057713659400548" y1="142.50000000000003" y2="145.00000000000006" /><path d="M 25.521815274538298 143.00000000000003 a86.0,86.0 0 0,1 -11.493303480769221,-40.785679425670985" fill="none" id="id93" stroke="none" /><text fill="#e1ed5e" style="font-size:6.75px; font-family:Arial;" text-anchor="middle"><textPath startOffset="21.40746469413373" xlink:href="#id93">September</textPath></text><path d="M 80.9802524753101 108.90220220490708 l -10.330223133605003 4.835066030071286 a32.405760540411904,32.405760540411904 0 0,0 -0.23149369091660948,-0.5058554926123572 l 10.411701289376667 -4.65702155524424" fill="#ff7f0b" stroke="none" /><path d="M 80.68587082218212 108.24405325689762 l -2.3798260802390288 1.0158062404479096 a23.587553765686575,23.587553765686575 0 0,0 -0.15576114751937267,-0.37377005119173223 l 2.396913072294887 -0.9748036798148961" fill="#ff0000" stroke="none" /><path d="M 80.5471966667186 107.91128576633889 l -4.312479429785318 1.753847841155078 a25.65547646135665,25.65547646135665 0 0,0 -0.1624130016737218,-0.4093868602429491 l 4.341951106425164 -1.6795599636985634" fill="#ff1f03" stroke="none" /><path d="M 80.41425534168474 107.57618678355246 l -16.669491084822788 6.448117253063555 a38.87316841346946,38.87316841346946 0 0,0 -0.2354035354812942,-0.6244358454865855 l 16.77772530411852 -6.161013127382824" fill="#ffd513" stroke="none" /><path d="M 80.16572619554312 106.89939002012753 l -14.056723989732765 4.889658283766195 a35.88288437956608,35.88288437956608 0 0,0 -0.1973807743749077,-0.5835211871742417 l 14.13859018568004 -4.647635422117792" fill="#ffae10" stroke="none" /><path d="M 80.05021161711548 106.5578916946017 l -14.959872475615017 4.91760722355849 a36.74740122343552,36.74740122343552 0 0,0 -0.19184817988469552,-0.6009616910235521 l 15.042085371276967 -4.660076498843546" fill="#ffba11" stroke="none" /><path d="M 79.83685265289637 105.86919833188381 l -24.822245590379538 7.2253939280760715 a46.85246977688969,46.85246977688969 0 0,0 -0.21815738784831773,-0.7741636075311954 l 24.94262147030243 -6.79822239664188" fill="#c6ff1e" stroke="none" /><path d="M 79.56144815229197 104.8234425847677 l -14.324388131499283 3.380516595747108 a35.71787986756106,35.71787986756106 0 0,0 -0.1357094696009271,-0.5979609631392833 l 14.380308462657878 -3.1341212986687985" fill="#ffac0f" stroke="none" /><path d="M 79.2786578344484 103.40968896794605 l -62.16402649665483 10.22906690383814 a84.0,84.0 0 0,0 -0.2219140314469299,-1.4248472722742 l 62.33046202024003 -9.16043144963249" fill="#4dd2ff" stroke="none" /><path d="M 79.0935383218832 101.97986365728391 l -7.769382471037065 0.7357685978037086 a28.8041437333491,28.8041437333491 0 0,0 -0.042391987337685344,-0.492659151304058 l 7.780868081072491 -0.6022883991239886" fill="#ff4c07" stroke="none" /><path d="M 79.01933749520258 100.90099992219065 l -15.959377694923116 0.6853643471958489 a36.97408716320331,36.97408716320331 0 0,0 -0.021788852459545732,-0.634358665636302 l 15.96879123437951 -0.411299416995427" fill="#ffbd11" stroke="none" /><line stroke="#e1ed5e" stroke-width="0.3" x1="15.003131293944662" x2="10.003315487706104" y1="100.72959589197737" y2="100.7725132973878" /><path d="M 14.003168132696942 100.73817937305945 a86.0,86.0 0 0,1 10.791469493833604,-42.45332614584628" fill="none" id="id94" stroke="none" /><text fill="#e1ed5e" style="font-size:6.75px; font-family:Arial;" text-anchor="middle"><textPath startOffset="22.145653131862435" xlink:href="#id94">October</textPath></text><path d="M 79.00077361379809 100.18025310272382 l -14.72690224861505 0.12641274373648068 a35.72744478930551,35.72744478930551 0 0,0 0.0,-0.613331692920591 l 14.72690224861505 0.12641274373647526" fill="#ffac0f" stroke="none" /><path d="M 79.01933749520258 99.09900007780938 l -18.408151677393317 -0.7905252384290571 a39.42511813613448,39.42511813613448 0 0,0 0.0348413108615999,-0.6759121227839887 l 18.391868777075146 1.1064091545897579" fill="#ffdc14" stroke="none" /><path d="M 79.13060592940154 97.66154086499901 l -21.27203419350734 -2.38357580059986 a42.40515994630619,42.40515994630619 0 0,0 0.0872696449859252,-0.7227178512312392 l 21.22798246226175 2.7483873287545357" fill="#fcff18" stroke="none" /><path d="M 79.17382384314186 97.30363454192245 l -14.7131152915226 -1.9049073413176774 a35.83591701111334,35.83591701111334 0 0,0 0.08422376232242614,-0.6094011881447945 l 14.678247012644965 2.157196837662539" fill="#ffad10" stroke="none" /><path d="M 79.2786578344484 96.59031103205396 l -14.560508362426123 -2.3959261101139577 a35.75631612894651,35.75631612894651 0 0,0 0.10485996450507316,-0.6048044098140755 l 14.517233580428815 2.645523552848626" fill="#ffac10" stroke="none" /><path d="M 79.407916724674 95.88100663000787 l -14.849231441793867 -2.970262165339817 a36.143385742389604,36.143385742389604 0 0,0 0.1269188572953215,-0.6073526773016568 l 14.796054873674178 3.224731293926883" fill="#ffb210" stroke="none" /><path d="M 79.56144815229197 95.17655741523228 l -20.791823214400228 -4.906813665399013 a42.36297575071925,42.36297575071925 0 0,0 0.17310817777615706,-0.7063404386372333 l 20.704527510107773 5.263009928644364" fill="#fcff18" stroke="none" /><path d="M 79.94057633289273 93.78553927170692 l -22.7156032595225 -7.037351955792553 a44.78072652367304,44.78072652367304 0 0,0 0.23378798476780055,-0.7323375324774551 l 22.591450558977442 7.4262585219614" fill="#dfff1b" stroke="none" /><path d="M 80.16572619554312 93.10060997987247 l -8.263314636240658 -2.8744097765576653 a29.748977102557724,29.748977102557724 0 0,0 0.17192051440633485,-0.48089227665441553 l 8.21275395179038 3.0158370095930023" fill="#ff5a08" stroke="none" /><path d="M 80.28708602549916 92.7611449362534 l -15.639150079809383 -5.742912534106358 a37.660253887417134,37.660253887417134 0 0,0 0.22805851115416986,-0.6049522958175029 l 15.538260884840778 6.010533110118006" fill="#ffc612" stroke="none" /><path d="M 80.68587082218212 91.75594674310238 l -13.745814015933322 -5.867270626775782 a35.94564376560792,35.94564376560792 0 0,0 0.2471110975638789,-0.5654385505764256 l 13.643069036352466 6.102371247128074" fill="#ffaf10" stroke="none" /><path d="M 80.9802524753101 91.09779779509293 l -12.237314247956508 -5.727680966263263 a34.511409595395065,34.511409595395065 0 0,0 0.2557471985754779,-0.5344132826920697 l 12.137187791421125 5.936906751020419" fill="#ff9c0e" stroke="none" /><path d="M 81.46374523516351 90.13048839642627 l -19.764107917356593 -10.52327424818683 a43.39105318361487,43.39105318361487 0 0,0 0.3557129328879498,-0.6544717317312252 l 19.58054963485329 10.861000813392675" fill="#f0ff19" stroke="none" /><line stroke="#e1ed5e" stroke-width="0.3" x1="26.387840678322718" x2="22.05771365940052" y1="57.49999999999999" y2="54.99999999999999" /><path d="M 25.521815274538284 56.99999999999999 a86.0,86.0 0 0,1 29.574782752854787,-30.34633250058573" fill="none" id="id95" stroke="none" /><text fill="#e1ed5e" style="font-size:6.75px; font-family:Arial;" text-anchor="middle"><textPath startOffset="21.40746469413373" xlink:href="#id95">November</textPath></text><path d="M 81.99639281039701 89.18935116829357 l -8.958335000811385 -5.379222774116303 a31.449296801236617,31.449296801236617 0 0,0 0.2818935787306317,-0.4604519757315902 l 8.86467345762536 5.532211865972436" fill="#ff720a" stroke="none" /><path d="M 82.18462484594161 88.88188828441811 l -18.982190751352572 -11.846290945601917 a43.37539217284437,43.37539217284437 0 0,0 0.3996367144873445,-0.6282952930680488 l 18.776036345239337 12.170399913348637" fill="#f0ff19" stroke="none" /><path d="M 82.576782715395 88.27688183743585 l -12.131614056673236 -8.162691354062904 a35.622092523362205,35.622092523362205 0 0,0 0.34572133582741477,-0.5044177609794923 l 11.989702984030508 8.369743850112432" fill="#ffab0f" stroke="none" /><path d="M 82.98947788004972 87.6856937992154 l -15.236728252400411 -11.030216231760944 a39.810198243423685,39.810198243423685 0 0,0 0.4054914763921968,-0.5501270646189206 l 15.045134756424396 11.290149605648729" fill="#ffe115" stroke="none" /><path d="M 83.2033758604659 87.39550010848427 l -11.930262582198687 -8.9526914559659 a35.91582547450643,35.91582547450643 0 0,0 0.37429082794207374,-0.48995870867316116 l 11.774819776902305 9.156171077879945" fill="#ffaf10" stroke="none" /><path d="M 83.64595745247003 86.82634096563983 l -9.172137410090876 -7.388424636028976 a32.77781487678714,32.77781487678714 0 0,0 0.3567368499284313,-0.43516095231225954 l 9.043953740923815 7.544787870039729" fill="#ff840c" stroke="none" /><path d="M 83.8745106332314 86.54754324733833 l -7.489369126555744 -6.247898094016114 a30.75330100566042,30.75330100566042 0 0,0 0.3416624911772713,-0.4024775555087113 l 7.381012071871358 6.375542431974383" fill="#ff6809" stroke="none" /><path d="M 84.10781606972428 86.27271002978789 l -5.6024655341753276 -4.839276292871962 a28.403121983351014,28.403121983351014 0 0,0 0.3218870848129533,-0.3662484145199718 l 5.518567385403782 4.934736985203235" fill="#ff4706" stroke="none" /><path d="M 84.58840730492382 85.73525988315684 l -14.308312227298114 -13.243560186888786 a40.496658308992195,40.496658308992195 0 0,0 0.4765958502020459,-0.5061282769954321 l 14.078860543359795 13.487229923828728" fill="#ffea16" stroke="none" /><path d="M 85.34317274990677 84.96080404539775 l -43.46329332190668 -44.5971678554342 a83.27331087321335,83.27331087321335 0 0,0 1.0323016196852228,-0.9889216000510864 l 42.691319216356156 45.336701585790856" fill="#4cd9ff" stroke="none" /><path d="M 86.13680546590413 84.22622945171909 l -3.0728317185571377 -3.496318423779596 a25.65473278406306,25.65473278406306 0 0,0 0.333292264033009,-0.2878899195530671 l 3.01235997476128 3.548552475797374" fill="#ff1f03" stroke="none" /><path d="M 87.54013794807813 83.09580414077388 l -6.154530112613493 -8.34980210949255 a31.37291840200975,31.37291840200975 0 0,0 0.4362613301607065,-0.31581955952191354 l 6.010287772078819 8.454222440387543" fill="#ff710a" stroke="none" /><path d="M 87.83215693770416 82.88440491214696 l -6.681722274523714 -9.398679154122686 a32.53172070404095,32.53172070404095 0 0,0 0.4579303015561216,-0.31967091514564494 l 6.519396881793827 9.511994885073458" fill="#ff810b" stroke="none" /><path d="M 88.4268655584334 82.4767994020092 l -11.380999675177955 -17.232284073148243 a41.651362375980895,41.651362375980895 0 0,0 0.600006454990636,-0.3889169350525976 l 11.083507587930294 17.425114849904745" fill="#fff917" stroke="none" /><line stroke="#e1ed5e" stroke-width="0.3" x1="56.869717070023135" x2="54.33264160355391" y1="26.7553504044142" y2="22.446841604673864" /><path d="M 56.362301976729285 25.89364864446614 a86.0,86.0 0 0,1 42.16139366436587,-11.88097634709845" fill="none" id="id96" stroke="none" /><text fill="#e1ed5e" style="font-size:6.75px; font-family:Arial;" text-anchor="middle"><textPath startOffset="22.145653131862474" xlink:href="#id96">December</textPath></text></svg>